G04 #@! TF.FileFunction,Copper,L2,Bot,Signal*
%FSLAX46Y46*%
G04 Gerber Fmt 4.6, Leading zero omitted, Abs format (unit mm)*
G04 Created by KiCad (PCBNEW (2015-10-03 BZR 6242)-product) date Sat 14 Nov 2015 03:55:45 PM EET*
%MOMM*%
G01*
G04 APERTURE LIST*
%ADD10C,0.100000*%
%ADD11R,1.500000X1.300000*%
%ADD12R,1.110000X1.220000*%
%ADD13R,1.998980X2.499360*%
%ADD14C,0.909320*%
%ADD15R,0.500380X2.501240*%
%ADD16R,1.727200X1.727200*%
%ADD17O,1.727200X1.727200*%
%ADD18R,2.032000X2.032000*%
%ADD19O,2.032000X2.032000*%
%ADD20R,1.250000X1.500000*%
%ADD21R,2.032000X1.727200*%
%ADD22O,2.032000X1.727200*%
%ADD23R,1.300000X1.500000*%
%ADD24R,0.800100X1.800860*%
%ADD25C,0.600000*%
%ADD26C,0.250000*%
%ADD27C,0.500000*%
%ADD28C,0.300000*%
%ADD29C,0.400000*%
%ADD30C,0.254000*%
G04 APERTURE END LIST*
D10*
G36*
X154335242Y-111505536D02*
X153946333Y-111894445D01*
X152956384Y-110904496D01*
X153345293Y-110515587D01*
X154335242Y-111505536D01*
X154335242Y-111505536D01*
G37*
G36*
X150375445Y-115465333D02*
X149986536Y-115854242D01*
X148996587Y-114864293D01*
X149385496Y-114475384D01*
X150375445Y-115465333D01*
X150375445Y-115465333D01*
G37*
G36*
X147193464Y-115854242D02*
X146804555Y-115465333D01*
X147794504Y-114475384D01*
X148183413Y-114864293D01*
X147193464Y-115854242D01*
X147193464Y-115854242D01*
G37*
G36*
X143233667Y-111894445D02*
X142844758Y-111505536D01*
X143834707Y-110515587D01*
X144223616Y-110904496D01*
X143233667Y-111894445D01*
X143233667Y-111894445D01*
G37*
G36*
X144223616Y-109313504D02*
X143834707Y-109702413D01*
X142844758Y-108712464D01*
X143233667Y-108323555D01*
X144223616Y-109313504D01*
X144223616Y-109313504D01*
G37*
G36*
X148183413Y-105353707D02*
X147794504Y-105742616D01*
X146804555Y-104752667D01*
X147193464Y-104363758D01*
X148183413Y-105353707D01*
X148183413Y-105353707D01*
G37*
G36*
X149385496Y-105742616D02*
X148996587Y-105353707D01*
X149986536Y-104363758D01*
X150375445Y-104752667D01*
X149385496Y-105742616D01*
X149385496Y-105742616D01*
G37*
G36*
X153345293Y-109702413D02*
X152956384Y-109313504D01*
X153946333Y-108323555D01*
X154335242Y-108712464D01*
X153345293Y-109702413D01*
X153345293Y-109702413D01*
G37*
G36*
X153769557Y-112071221D02*
X153380648Y-112460130D01*
X152390699Y-111470181D01*
X152779608Y-111081272D01*
X153769557Y-112071221D01*
X153769557Y-112071221D01*
G37*
G36*
X153203872Y-112636906D02*
X152814963Y-113025815D01*
X151825014Y-112035866D01*
X152213923Y-111646957D01*
X153203872Y-112636906D01*
X153203872Y-112636906D01*
G37*
G36*
X152638186Y-113202592D02*
X152249277Y-113591501D01*
X151259328Y-112601552D01*
X151648237Y-112212643D01*
X152638186Y-113202592D01*
X152638186Y-113202592D01*
G37*
G36*
X152072501Y-113768277D02*
X151683592Y-114157186D01*
X150693643Y-113167237D01*
X151082552Y-112778328D01*
X152072501Y-113768277D01*
X152072501Y-113768277D01*
G37*
G36*
X151506815Y-114333963D02*
X151117906Y-114722872D01*
X150127957Y-113732923D01*
X150516866Y-113344014D01*
X151506815Y-114333963D01*
X151506815Y-114333963D01*
G37*
G36*
X150941130Y-114899648D02*
X150552221Y-115288557D01*
X149562272Y-114298608D01*
X149951181Y-113909699D01*
X150941130Y-114899648D01*
X150941130Y-114899648D01*
G37*
G36*
X146627779Y-115288557D02*
X146238870Y-114899648D01*
X147228819Y-113909699D01*
X147617728Y-114298608D01*
X146627779Y-115288557D01*
X146627779Y-115288557D01*
G37*
G36*
X146062094Y-114722872D02*
X145673185Y-114333963D01*
X146663134Y-113344014D01*
X147052043Y-113732923D01*
X146062094Y-114722872D01*
X146062094Y-114722872D01*
G37*
G36*
X145496408Y-114157186D02*
X145107499Y-113768277D01*
X146097448Y-112778328D01*
X146486357Y-113167237D01*
X145496408Y-114157186D01*
X145496408Y-114157186D01*
G37*
G36*
X144930723Y-113591501D02*
X144541814Y-113202592D01*
X145531763Y-112212643D01*
X145920672Y-112601552D01*
X144930723Y-113591501D01*
X144930723Y-113591501D01*
G37*
G36*
X144365037Y-113025815D02*
X143976128Y-112636906D01*
X144966077Y-111646957D01*
X145354986Y-112035866D01*
X144365037Y-113025815D01*
X144365037Y-113025815D01*
G37*
G36*
X143799352Y-112460130D02*
X143410443Y-112071221D01*
X144400392Y-111081272D01*
X144789301Y-111470181D01*
X143799352Y-112460130D01*
X143799352Y-112460130D01*
G37*
G36*
X144789301Y-108747819D02*
X144400392Y-109136728D01*
X143410443Y-108146779D01*
X143799352Y-107757870D01*
X144789301Y-108747819D01*
X144789301Y-108747819D01*
G37*
G36*
X145354986Y-108182134D02*
X144966077Y-108571043D01*
X143976128Y-107581094D01*
X144365037Y-107192185D01*
X145354986Y-108182134D01*
X145354986Y-108182134D01*
G37*
G36*
X145920672Y-107616448D02*
X145531763Y-108005357D01*
X144541814Y-107015408D01*
X144930723Y-106626499D01*
X145920672Y-107616448D01*
X145920672Y-107616448D01*
G37*
G36*
X146486357Y-107050763D02*
X146097448Y-107439672D01*
X145107499Y-106449723D01*
X145496408Y-106060814D01*
X146486357Y-107050763D01*
X146486357Y-107050763D01*
G37*
G36*
X147052043Y-106485077D02*
X146663134Y-106873986D01*
X145673185Y-105884037D01*
X146062094Y-105495128D01*
X147052043Y-106485077D01*
X147052043Y-106485077D01*
G37*
G36*
X147617728Y-105919392D02*
X147228819Y-106308301D01*
X146238870Y-105318352D01*
X146627779Y-104929443D01*
X147617728Y-105919392D01*
X147617728Y-105919392D01*
G37*
G36*
X149951181Y-106308301D02*
X149562272Y-105919392D01*
X150552221Y-104929443D01*
X150941130Y-105318352D01*
X149951181Y-106308301D01*
X149951181Y-106308301D01*
G37*
G36*
X150516866Y-106873986D02*
X150127957Y-106485077D01*
X151117906Y-105495128D01*
X151506815Y-105884037D01*
X150516866Y-106873986D01*
X150516866Y-106873986D01*
G37*
G36*
X151082552Y-107439672D02*
X150693643Y-107050763D01*
X151683592Y-106060814D01*
X152072501Y-106449723D01*
X151082552Y-107439672D01*
X151082552Y-107439672D01*
G37*
G36*
X151648237Y-108005357D02*
X151259328Y-107616448D01*
X152249277Y-106626499D01*
X152638186Y-107015408D01*
X151648237Y-108005357D01*
X151648237Y-108005357D01*
G37*
G36*
X152213923Y-108571043D02*
X151825014Y-108182134D01*
X152814963Y-107192185D01*
X153203872Y-107581094D01*
X152213923Y-108571043D01*
X152213923Y-108571043D01*
G37*
G36*
X152779608Y-109136728D02*
X152390699Y-108747819D01*
X153380648Y-107757870D01*
X153769557Y-108146779D01*
X152779608Y-109136728D01*
X152779608Y-109136728D01*
G37*
D11*
X157861000Y-115189000D03*
X155161000Y-115189000D03*
D12*
X136695000Y-114935000D03*
X140165000Y-114935000D03*
D13*
X139694920Y-95264300D03*
X139694920Y-100763400D03*
X148595080Y-100763400D03*
X148595080Y-95264300D03*
D14*
X141945360Y-98264040D03*
X146344640Y-98264040D03*
D15*
X145745200Y-100965000D03*
X144945100Y-100965000D03*
X144145000Y-100965000D03*
X143344900Y-100965000D03*
X142544800Y-100965000D03*
D16*
X157988000Y-105029000D03*
D17*
X160528000Y-105029000D03*
X157988000Y-107569000D03*
X160528000Y-107569000D03*
X157988000Y-110109000D03*
X160528000Y-110109000D03*
D18*
X152654000Y-95250000D03*
D19*
X155194000Y-95250000D03*
D16*
X160020000Y-120650000D03*
D17*
X160020000Y-118110000D03*
X157480000Y-120650000D03*
X157480000Y-118110000D03*
X154940000Y-120650000D03*
X154940000Y-118110000D03*
X152400000Y-120650000D03*
X152400000Y-118110000D03*
X149860000Y-120650000D03*
X149860000Y-118110000D03*
X147320000Y-120650000D03*
X147320000Y-118110000D03*
X144780000Y-120650000D03*
X144780000Y-118110000D03*
X142240000Y-120650000D03*
X142240000Y-118110000D03*
X139700000Y-120650000D03*
X139700000Y-118110000D03*
X137160000Y-120650000D03*
X137160000Y-118110000D03*
D20*
X157226000Y-99782000D03*
X157226000Y-97282000D03*
X151511000Y-98699000D03*
X151511000Y-101199000D03*
D21*
X136779000Y-103505000D03*
D22*
X136779000Y-106045000D03*
X136779000Y-108585000D03*
X136779000Y-111125000D03*
D23*
X160147000Y-96233000D03*
X160147000Y-98933000D03*
D24*
X155316000Y-101554280D03*
X153416000Y-101554280D03*
X154366000Y-98552000D03*
D10*
G36*
X139438929Y-113057355D02*
X138555045Y-112173471D01*
X139615705Y-111112811D01*
X140499589Y-111996695D01*
X139438929Y-113057355D01*
X139438929Y-113057355D01*
G37*
G36*
X141206695Y-111289589D02*
X140322811Y-110405705D01*
X141383471Y-109345045D01*
X142267355Y-110228929D01*
X141206695Y-111289589D01*
X141206695Y-111289589D01*
G37*
D25*
X146939000Y-110236000D03*
X151892000Y-110236000D03*
X136779000Y-113538000D03*
X139801600Y-109677200D03*
X144399000Y-98933000D03*
X143256000Y-96774000D03*
X141605000Y-114681000D03*
X141478000Y-116205000D03*
X154059000Y-104140000D03*
X160147000Y-100633786D03*
X146812000Y-102997000D03*
X145669008Y-110236000D03*
X151765000Y-109093000D03*
X155956000Y-111633000D03*
X148367169Y-106452081D03*
X147610233Y-106711054D03*
X147193000Y-107442000D03*
X146685000Y-108077000D03*
X147066000Y-108839000D03*
X150622000Y-103124000D03*
X155397200Y-113030000D03*
X145796000Y-115189000D03*
X157099000Y-103505000D03*
X152781000Y-103759000D03*
X157226000Y-106426000D03*
X153543000Y-107061000D03*
X151003000Y-108204000D03*
X153009600Y-98704400D03*
X157124400Y-112826800D03*
D26*
X151892000Y-110236000D02*
X151892000Y-110617000D01*
X151892000Y-110617000D02*
X150825200Y-111683800D01*
X150825200Y-111683800D02*
X150825200Y-112909886D01*
X150825200Y-112909886D02*
X151312361Y-113397047D01*
D27*
X143534187Y-109012984D02*
X143713200Y-109191997D01*
X141122400Y-112268000D02*
X139710234Y-112268000D01*
X143713200Y-109191997D02*
X143713200Y-109677200D01*
X143713200Y-109677200D02*
X141122400Y-112268000D01*
X139710234Y-112268000D02*
X139527317Y-112085083D01*
X136779000Y-113538000D02*
X138074400Y-113538000D01*
X138074400Y-113538000D02*
X139527317Y-112085083D01*
D26*
X160528000Y-105537000D02*
X159893000Y-106172000D01*
X160528000Y-105029000D02*
X160528000Y-105537000D01*
X160528000Y-105029000D02*
X161417000Y-104140000D01*
X161417000Y-104140000D02*
X161417000Y-98044000D01*
X161417000Y-98044000D02*
X160909000Y-97536000D01*
X160909000Y-97536000D02*
X159512000Y-97536000D01*
X157988000Y-96012000D02*
X156535998Y-96012000D01*
X159512000Y-97536000D02*
X157988000Y-96012000D01*
X156535998Y-96012000D02*
X156340999Y-96206999D01*
D28*
X143519305Y-109083695D02*
X143604897Y-109083695D01*
X155635309Y-99888691D02*
X155448000Y-100076000D01*
X155448000Y-100076000D02*
X154393900Y-100076000D01*
X154393900Y-100076000D02*
X153416000Y-101053900D01*
X153416000Y-101053900D02*
X153416000Y-101554280D01*
X155742000Y-99782000D02*
X155782000Y-99822000D01*
X155782000Y-99822000D02*
X157186000Y-99822000D01*
X157186000Y-99822000D02*
X157226000Y-99782000D01*
D26*
X155635309Y-99888691D02*
X155742000Y-99782000D01*
D28*
X155747223Y-97787905D02*
X155747223Y-99776777D01*
X155747223Y-99776777D02*
X155635309Y-99888691D01*
X155099299Y-97139981D02*
X155747223Y-97787905D01*
X152654000Y-95250000D02*
X152654000Y-96566000D01*
X152654000Y-96566000D02*
X153227981Y-97139981D01*
X153227981Y-97139981D02*
X155099299Y-97139981D01*
X155408017Y-97139981D02*
X155099299Y-97139981D01*
X156340999Y-96206999D02*
X155408017Y-97139981D01*
D26*
X155742000Y-99782000D02*
X155747223Y-99782000D01*
D28*
X146281669Y-109578669D02*
X146939000Y-110236000D01*
X143604897Y-109083695D02*
X144099871Y-109578669D01*
X144099871Y-109578669D02*
X146281669Y-109578669D01*
D26*
X151892000Y-110236000D02*
X152676798Y-110236000D01*
X152676798Y-110236000D02*
X153575103Y-111134305D01*
X157226000Y-99657000D02*
X157226000Y-99782000D01*
X156340999Y-96206999D02*
X156275999Y-96271999D01*
X155747223Y-97787905D02*
X155747223Y-99782000D01*
D27*
X136795000Y-114935000D02*
X136795000Y-113554000D01*
X136795000Y-113554000D02*
X136779000Y-113538000D01*
D26*
X148595080Y-100763400D02*
X147394600Y-100763400D01*
X147394600Y-100763400D02*
X146913600Y-101244400D01*
X146913600Y-101244400D02*
X146913600Y-102895400D01*
X146913600Y-102895400D02*
X146812000Y-102997000D01*
X145745200Y-100965000D02*
X145745200Y-102260400D01*
X145745200Y-102260400D02*
X146202400Y-102717600D01*
X146202400Y-102717600D02*
X146558000Y-102717600D01*
D27*
X139801600Y-109677200D02*
X140654966Y-109677200D01*
X140654966Y-109677200D02*
X141295083Y-110317317D01*
X139801600Y-109677200D02*
X138353800Y-111125000D01*
X138353800Y-111125000D02*
X136779000Y-111125000D01*
D26*
X141605000Y-114681000D02*
X141605000Y-113134202D01*
X141605000Y-113134202D02*
X143604897Y-111134305D01*
D27*
X159970214Y-100633786D02*
X159049720Y-101554280D01*
X159049720Y-101554280D02*
X155316000Y-101554280D01*
X160147000Y-100633786D02*
X159970214Y-100633786D01*
X151511000Y-101199000D02*
X149030680Y-101199000D01*
X149030680Y-101199000D02*
X148595080Y-100763400D01*
D26*
X160147000Y-98933000D02*
X159258000Y-98933000D01*
X159258000Y-98933000D02*
X157607000Y-97282000D01*
X157607000Y-97282000D02*
X157226000Y-97282000D01*
X154940000Y-118110000D02*
X154940000Y-115410000D01*
X154940000Y-115410000D02*
X155161000Y-115189000D01*
X145542000Y-99187000D02*
X145745200Y-99390200D01*
X145745200Y-99390200D02*
X145745200Y-100965000D01*
X144653000Y-99187000D02*
X145542000Y-99187000D01*
X144399000Y-98933000D02*
X144653000Y-99187000D01*
X160528000Y-109728000D02*
X161290000Y-108966000D01*
X160528000Y-110109000D02*
X160528000Y-109728000D01*
D27*
X160528000Y-110109000D02*
X160528000Y-117602000D01*
X160528000Y-117602000D02*
X160020000Y-118110000D01*
D26*
X140970000Y-116713000D02*
X140970000Y-119380000D01*
X141478000Y-116205000D02*
X140970000Y-116713000D01*
X140970000Y-119380000D02*
X140563599Y-119786401D01*
X140563599Y-119786401D02*
X139700000Y-120650000D01*
X141605000Y-116078000D02*
X141478000Y-116205000D01*
D28*
X154454476Y-103744524D02*
X154059000Y-104140000D01*
X155316000Y-101554280D02*
X155316000Y-102883000D01*
X155316000Y-102883000D02*
X154454476Y-103744524D01*
D26*
X153575103Y-109083695D02*
X153575103Y-109187897D01*
X153575103Y-109187897D02*
X153162000Y-109601000D01*
X153162000Y-109601000D02*
X152273000Y-109601000D01*
X152273000Y-109601000D02*
X151765000Y-109093000D01*
X160147000Y-98933000D02*
X160147000Y-100633786D01*
X155956000Y-111633000D02*
X153575103Y-109252103D01*
X153575103Y-109252103D02*
X153575103Y-109083695D01*
X145244744Y-110236000D02*
X145669008Y-110236000D01*
X143604897Y-111134305D02*
X144503202Y-110236000D01*
X144503202Y-110236000D02*
X145244744Y-110236000D01*
X160147000Y-117983000D02*
X160020000Y-118110000D01*
X157480000Y-118110000D02*
X158701314Y-118110000D01*
X158701314Y-118110000D02*
X160020000Y-118110000D01*
X154940000Y-118110000D02*
X156161314Y-118110000D01*
X156161314Y-118110000D02*
X157480000Y-118110000D01*
X150746676Y-113962732D02*
X149860000Y-113076056D01*
X149860000Y-113076056D02*
X149860000Y-107944912D01*
X149860000Y-107944912D02*
X148667168Y-106752080D01*
X148667168Y-106752080D02*
X148367169Y-106452081D01*
X157480000Y-120650000D02*
X156210000Y-119380000D01*
X156210000Y-119380000D02*
X154450870Y-119380000D01*
X154450870Y-119380000D02*
X153670000Y-118599130D01*
X153670000Y-118599130D02*
X153670000Y-116886056D01*
X153670000Y-116886056D02*
X150746676Y-113962732D01*
X150180990Y-114528417D02*
X149352000Y-113699427D01*
X149352000Y-113699427D02*
X149352000Y-108452821D01*
X149352000Y-108452821D02*
X147910232Y-107011053D01*
X147910232Y-107011053D02*
X147610233Y-106711054D01*
X154940000Y-120650000D02*
X153670000Y-119380000D01*
X153670000Y-119380000D02*
X151910870Y-119380000D01*
X151910870Y-119380000D02*
X151130000Y-118599130D01*
X151130000Y-118599130D02*
X151130000Y-115477427D01*
X151130000Y-115477427D02*
X150675964Y-115023391D01*
X150675964Y-115023391D02*
X150180990Y-114528417D01*
X152400000Y-120650000D02*
X151130000Y-119380000D01*
X151130000Y-119380000D02*
X149225000Y-119380000D01*
X149225000Y-119380000D02*
X148590000Y-118745000D01*
X148844000Y-114322798D02*
X148844000Y-108839000D01*
X148590000Y-118745000D02*
X148590000Y-117475000D01*
X148590000Y-117475000D02*
X150114000Y-115951000D01*
X150114000Y-115951000D02*
X150114000Y-115592798D01*
X150114000Y-115592798D02*
X148844000Y-114322798D01*
X147447000Y-107442000D02*
X147193000Y-107442000D01*
X148844000Y-108839000D02*
X147447000Y-107442000D01*
X146685000Y-108077000D02*
X147193000Y-108077000D01*
X147193000Y-108077000D02*
X148336000Y-109220000D01*
X148336000Y-109220000D02*
X148336000Y-114322798D01*
X148336000Y-114322798D02*
X147564695Y-115094103D01*
X149860000Y-120650000D02*
X149733000Y-120777000D01*
X149733000Y-120414870D02*
X149370870Y-120414870D01*
X146668072Y-119380000D02*
X146050000Y-118761928D01*
X149733000Y-120777000D02*
X149733000Y-120414870D01*
X149370870Y-120414870D02*
X148336000Y-119380000D01*
X148336000Y-119380000D02*
X146668072Y-119380000D01*
X146050000Y-118761928D02*
X146050000Y-116608798D01*
X146050000Y-116608798D02*
X147069721Y-115589077D01*
X147069721Y-115589077D02*
X147564695Y-115094103D01*
X144780000Y-120650000D02*
X143510000Y-119380000D01*
X143510000Y-119380000D02*
X143510000Y-114623314D01*
X143510000Y-114623314D02*
X145301953Y-112831361D01*
X147574000Y-109347000D02*
X147574000Y-110559314D01*
X147574000Y-110559314D02*
X145301953Y-112831361D01*
X147066000Y-108839000D02*
X147574000Y-109347000D01*
X149615305Y-105123897D02*
X150622000Y-104117202D01*
X150622000Y-104117202D02*
X150622000Y-103124000D01*
X160147000Y-96233000D02*
X159247000Y-96233000D01*
X159247000Y-96233000D02*
X158264000Y-95250000D01*
X156630840Y-95250000D02*
X155194000Y-95250000D01*
X158264000Y-95250000D02*
X156630840Y-95250000D01*
X153084870Y-112902070D02*
X153212800Y-113030000D01*
X153212800Y-113030000D02*
X155397200Y-113030000D01*
X152514443Y-112336386D02*
X153080127Y-112902070D01*
X153080127Y-112902070D02*
X153084870Y-112902070D01*
X145796000Y-115189000D02*
X145796000Y-114681000D01*
X145796000Y-114681000D02*
X146433324Y-114043676D01*
X146433324Y-114043676D02*
X146433324Y-113962732D01*
X154940000Y-105664000D02*
X151337944Y-105664000D01*
X151337944Y-105664000D02*
X150746676Y-106255268D01*
X157099000Y-103505000D02*
X154940000Y-105664000D01*
X152781000Y-103759000D02*
X152111573Y-103759000D01*
X152111573Y-103759000D02*
X150180990Y-105689583D01*
X151370047Y-106820953D02*
X151765000Y-106426000D01*
X151765000Y-106426000D02*
X157226000Y-106426000D01*
X151312361Y-106820953D02*
X151370047Y-106820953D01*
X136779000Y-106045000D02*
X143960314Y-106045000D01*
X143960314Y-106045000D02*
X145301953Y-107386639D01*
X136779000Y-108585000D02*
X138430000Y-106934000D01*
X138430000Y-106934000D02*
X143717944Y-106934000D01*
X143717944Y-106934000D02*
X144736268Y-107952324D01*
X152711686Y-113665000D02*
X151878047Y-112831361D01*
X157988000Y-110109000D02*
X157988000Y-112858602D01*
X157988000Y-112858602D02*
X157181602Y-113665000D01*
X157181602Y-113665000D02*
X152711686Y-113665000D01*
X144145000Y-100965000D02*
X144145000Y-103966944D01*
X144145000Y-103966944D02*
X146433324Y-106255268D01*
X143344900Y-100965000D02*
X143344900Y-104298214D01*
X143344900Y-104298214D02*
X145867639Y-106820953D01*
X158623000Y-108839000D02*
X155575000Y-108839000D01*
X155575000Y-108839000D02*
X154686000Y-107950000D01*
X154686000Y-107950000D02*
X153577427Y-107950000D01*
X153577427Y-107950000D02*
X153009417Y-108518010D01*
X159258000Y-109220000D02*
X159258000Y-113792000D01*
X159258000Y-113792000D02*
X157861000Y-115189000D01*
X158877000Y-108839000D02*
X159258000Y-109220000D01*
X158623000Y-108839000D02*
X158877000Y-108839000D01*
X157988000Y-105029000D02*
X157988000Y-105809870D01*
X157988000Y-105809870D02*
X159258000Y-107079870D01*
X159258000Y-107079870D02*
X159258000Y-108204000D01*
X159258000Y-108204000D02*
X158623000Y-108839000D01*
X153543000Y-107061000D02*
X153670000Y-107188000D01*
X153670000Y-107188000D02*
X157607000Y-107188000D01*
X157607000Y-107188000D02*
X157988000Y-107569000D01*
X147564695Y-105123897D02*
X148104798Y-105664000D01*
X148104798Y-105664000D02*
X148463000Y-105664000D01*
X148463000Y-105664000D02*
X151003000Y-108204000D01*
X160528000Y-107569000D02*
X159258000Y-106299000D01*
X159258000Y-106299000D02*
X159258000Y-103632000D01*
X159258000Y-103632000D02*
X158242000Y-102616000D01*
X158242000Y-102616000D02*
X156508004Y-102616000D01*
X156508004Y-102616000D02*
X154359002Y-104765002D01*
X154359002Y-104765002D02*
X153758998Y-104765002D01*
X148235006Y-102498998D02*
X146304000Y-104430004D01*
X153758998Y-104765002D02*
X153425998Y-104432002D01*
X153425998Y-104432002D02*
X153425998Y-103514998D01*
X153425998Y-103514998D02*
X153035000Y-103124000D01*
X153035000Y-103124000D02*
X151892000Y-103124000D01*
X151892000Y-103124000D02*
X151266998Y-102498998D01*
X146304000Y-104430004D02*
X146304000Y-104994573D01*
X151266998Y-102498998D02*
X148235006Y-102498998D01*
X146304000Y-104994573D02*
X146999010Y-105689583D01*
X160528000Y-107569000D02*
X160528000Y-107950000D01*
X160528000Y-107569000D02*
X160528000Y-107696000D01*
X160528000Y-107569000D02*
X160528000Y-107315000D01*
X140165000Y-114935000D02*
X140716000Y-114935000D01*
X140716000Y-114935000D02*
X141224000Y-115443000D01*
X141224000Y-115443000D02*
X142062200Y-115443000D01*
X142062200Y-115443000D02*
X142875000Y-114630200D01*
X142875000Y-114630200D02*
X142875000Y-114126944D01*
X142875000Y-114126944D02*
X144736268Y-112265676D01*
D27*
X139700000Y-118110000D02*
X139700000Y-115300000D01*
X139700000Y-115300000D02*
X140065000Y-114935000D01*
D26*
X140065000Y-117745000D02*
X139700000Y-118110000D01*
D29*
X151511000Y-98699000D02*
X154219000Y-98699000D01*
X147015200Y-97028000D02*
X148686200Y-98699000D01*
X148686200Y-98699000D02*
X151511000Y-98699000D01*
X144881600Y-97028000D02*
X147015200Y-97028000D01*
X142544800Y-99364800D02*
X144881600Y-97028000D01*
X142544800Y-100965000D02*
X142544800Y-99364800D01*
D28*
X154219000Y-98699000D02*
X154366000Y-98552000D01*
D26*
X156824401Y-112526801D02*
X157124400Y-112826800D01*
X156633985Y-112336385D02*
X156824401Y-112526801D01*
X153645812Y-112336385D02*
X156633985Y-112336385D01*
X153080128Y-111770701D02*
X153645812Y-112336385D01*
D30*
G36*
X139827000Y-120523000D02*
X139847000Y-120523000D01*
X139847000Y-120777000D01*
X139827000Y-120777000D01*
X139827000Y-120797000D01*
X139573000Y-120797000D01*
X139573000Y-120777000D01*
X139553000Y-120777000D01*
X139553000Y-120523000D01*
X139573000Y-120523000D01*
X139573000Y-120503000D01*
X139827000Y-120503000D01*
X139827000Y-120523000D01*
X139827000Y-120523000D01*
G37*
X139827000Y-120523000D02*
X139847000Y-120523000D01*
X139847000Y-120777000D01*
X139827000Y-120777000D01*
X139827000Y-120797000D01*
X139573000Y-120797000D01*
X139573000Y-120777000D01*
X139553000Y-120777000D01*
X139553000Y-120523000D01*
X139573000Y-120523000D01*
X139573000Y-120503000D01*
X139827000Y-120503000D01*
X139827000Y-120523000D01*
G36*
X141150971Y-119169670D02*
X141465752Y-119380000D01*
X141150971Y-119590330D01*
X140970008Y-119861161D01*
X140588490Y-119443179D01*
X140465772Y-119385664D01*
X140789029Y-119169670D01*
X140970000Y-118898828D01*
X141150971Y-119169670D01*
X141150971Y-119169670D01*
G37*
X141150971Y-119169670D02*
X141465752Y-119380000D01*
X141150971Y-119590330D01*
X140970008Y-119861161D01*
X140588490Y-119443179D01*
X140465772Y-119385664D01*
X140789029Y-119169670D01*
X140970000Y-118898828D01*
X141150971Y-119169670D01*
G36*
X160655000Y-109982000D02*
X160675000Y-109982000D01*
X160675000Y-110236000D01*
X160655000Y-110236000D01*
X160655000Y-111442817D01*
X160887026Y-111563958D01*
X161215000Y-111428115D01*
X161215000Y-117238984D01*
X160908490Y-116903179D01*
X160379027Y-116655032D01*
X160147000Y-116775531D01*
X160147000Y-117983000D01*
X160167000Y-117983000D01*
X160167000Y-118237000D01*
X160147000Y-118237000D01*
X160147000Y-118257000D01*
X159893000Y-118257000D01*
X159893000Y-118237000D01*
X157607000Y-118237000D01*
X157607000Y-118257000D01*
X157353000Y-118257000D01*
X157353000Y-118237000D01*
X155067000Y-118237000D01*
X155067000Y-118257000D01*
X154813000Y-118257000D01*
X154813000Y-118237000D01*
X154793000Y-118237000D01*
X154793000Y-117983000D01*
X154813000Y-117983000D01*
X154813000Y-116775531D01*
X155067000Y-116775531D01*
X155067000Y-117983000D01*
X157353000Y-117983000D01*
X157353000Y-116775531D01*
X157607000Y-116775531D01*
X157607000Y-117983000D01*
X159893000Y-117983000D01*
X159893000Y-116775531D01*
X159660973Y-116655032D01*
X159131510Y-116903179D01*
X158750000Y-117321152D01*
X158368490Y-116903179D01*
X157839027Y-116655032D01*
X157607000Y-116775531D01*
X157353000Y-116775531D01*
X157120973Y-116655032D01*
X156591510Y-116903179D01*
X156210000Y-117321152D01*
X155828490Y-116903179D01*
X155299027Y-116655032D01*
X155067000Y-116775531D01*
X154813000Y-116775531D01*
X154580973Y-116655032D01*
X154400839Y-116739456D01*
X154375367Y-116611400D01*
X154372148Y-116595216D01*
X154291154Y-116474000D01*
X154875250Y-116474000D01*
X155034000Y-116315250D01*
X155034000Y-115316000D01*
X153934750Y-115316000D01*
X153776000Y-115474750D01*
X153776000Y-115917254D01*
X152307571Y-114448825D01*
X152401905Y-114354491D01*
X152420847Y-114367148D01*
X152711686Y-114425000D01*
X153776000Y-114425000D01*
X153776000Y-114903250D01*
X153934750Y-115062000D01*
X155034000Y-115062000D01*
X155034000Y-115042000D01*
X155288000Y-115042000D01*
X155288000Y-115062000D01*
X155308000Y-115062000D01*
X155308000Y-115316000D01*
X155288000Y-115316000D01*
X155288000Y-116315250D01*
X155446750Y-116474000D01*
X156037309Y-116474000D01*
X156270698Y-116377327D01*
X156449327Y-116198699D01*
X156505654Y-116062713D01*
X156507838Y-116074317D01*
X156646910Y-116290441D01*
X156859110Y-116435431D01*
X157111000Y-116486440D01*
X158611000Y-116486440D01*
X158846317Y-116442162D01*
X159062441Y-116303090D01*
X159207431Y-116090890D01*
X159258440Y-115839000D01*
X159258440Y-114866362D01*
X159795401Y-114329401D01*
X159960148Y-114082840D01*
X160018000Y-113792000D01*
X160018000Y-111501426D01*
X160168974Y-111563958D01*
X160401000Y-111442817D01*
X160401000Y-110236000D01*
X160381000Y-110236000D01*
X160381000Y-109982000D01*
X160401000Y-109982000D01*
X160401000Y-109962000D01*
X160655000Y-109962000D01*
X160655000Y-109982000D01*
X160655000Y-109982000D01*
G37*
X160655000Y-109982000D02*
X160675000Y-109982000D01*
X160675000Y-110236000D01*
X160655000Y-110236000D01*
X160655000Y-111442817D01*
X160887026Y-111563958D01*
X161215000Y-111428115D01*
X161215000Y-117238984D01*
X160908490Y-116903179D01*
X160379027Y-116655032D01*
X160147000Y-116775531D01*
X160147000Y-117983000D01*
X160167000Y-117983000D01*
X160167000Y-118237000D01*
X160147000Y-118237000D01*
X160147000Y-118257000D01*
X159893000Y-118257000D01*
X159893000Y-118237000D01*
X157607000Y-118237000D01*
X157607000Y-118257000D01*
X157353000Y-118257000D01*
X157353000Y-118237000D01*
X155067000Y-118237000D01*
X155067000Y-118257000D01*
X154813000Y-118257000D01*
X154813000Y-118237000D01*
X154793000Y-118237000D01*
X154793000Y-117983000D01*
X154813000Y-117983000D01*
X154813000Y-116775531D01*
X155067000Y-116775531D01*
X155067000Y-117983000D01*
X157353000Y-117983000D01*
X157353000Y-116775531D01*
X157607000Y-116775531D01*
X157607000Y-117983000D01*
X159893000Y-117983000D01*
X159893000Y-116775531D01*
X159660973Y-116655032D01*
X159131510Y-116903179D01*
X158750000Y-117321152D01*
X158368490Y-116903179D01*
X157839027Y-116655032D01*
X157607000Y-116775531D01*
X157353000Y-116775531D01*
X157120973Y-116655032D01*
X156591510Y-116903179D01*
X156210000Y-117321152D01*
X155828490Y-116903179D01*
X155299027Y-116655032D01*
X155067000Y-116775531D01*
X154813000Y-116775531D01*
X154580973Y-116655032D01*
X154400839Y-116739456D01*
X154375367Y-116611400D01*
X154372148Y-116595216D01*
X154291154Y-116474000D01*
X154875250Y-116474000D01*
X155034000Y-116315250D01*
X155034000Y-115316000D01*
X153934750Y-115316000D01*
X153776000Y-115474750D01*
X153776000Y-115917254D01*
X152307571Y-114448825D01*
X152401905Y-114354491D01*
X152420847Y-114367148D01*
X152711686Y-114425000D01*
X153776000Y-114425000D01*
X153776000Y-114903250D01*
X153934750Y-115062000D01*
X155034000Y-115062000D01*
X155034000Y-115042000D01*
X155288000Y-115042000D01*
X155288000Y-115062000D01*
X155308000Y-115062000D01*
X155308000Y-115316000D01*
X155288000Y-115316000D01*
X155288000Y-116315250D01*
X155446750Y-116474000D01*
X156037309Y-116474000D01*
X156270698Y-116377327D01*
X156449327Y-116198699D01*
X156505654Y-116062713D01*
X156507838Y-116074317D01*
X156646910Y-116290441D01*
X156859110Y-116435431D01*
X157111000Y-116486440D01*
X158611000Y-116486440D01*
X158846317Y-116442162D01*
X159062441Y-116303090D01*
X159207431Y-116090890D01*
X159258440Y-115839000D01*
X159258440Y-114866362D01*
X159795401Y-114329401D01*
X159960148Y-114082840D01*
X160018000Y-113792000D01*
X160018000Y-111501426D01*
X160168974Y-111563958D01*
X160401000Y-111442817D01*
X160401000Y-110236000D01*
X160381000Y-110236000D01*
X160381000Y-109982000D01*
X160401000Y-109982000D01*
X160401000Y-109962000D01*
X160655000Y-109962000D01*
X160655000Y-109982000D01*
G36*
X149103437Y-115886761D02*
X148125782Y-116864416D01*
X147679027Y-116655032D01*
X147447000Y-116775531D01*
X147447000Y-117983000D01*
X147467000Y-117983000D01*
X147467000Y-118237000D01*
X147447000Y-118237000D01*
X147447000Y-118257000D01*
X147193000Y-118257000D01*
X147193000Y-118237000D01*
X147173000Y-118237000D01*
X147173000Y-117983000D01*
X147193000Y-117983000D01*
X147193000Y-116775531D01*
X147038372Y-116695228D01*
X147242980Y-116490620D01*
X147437091Y-116454096D01*
X147651273Y-116312051D01*
X148590000Y-115373324D01*
X149103437Y-115886761D01*
X149103437Y-115886761D01*
G37*
X149103437Y-115886761D02*
X148125782Y-116864416D01*
X147679027Y-116655032D01*
X147447000Y-116775531D01*
X147447000Y-117983000D01*
X147467000Y-117983000D01*
X147467000Y-118237000D01*
X147447000Y-118237000D01*
X147447000Y-118257000D01*
X147193000Y-118257000D01*
X147193000Y-118237000D01*
X147173000Y-118237000D01*
X147173000Y-117983000D01*
X147193000Y-117983000D01*
X147193000Y-116775531D01*
X147038372Y-116695228D01*
X147242980Y-116490620D01*
X147437091Y-116454096D01*
X147651273Y-116312051D01*
X148590000Y-115373324D01*
X149103437Y-115886761D01*
G36*
X149987000Y-117983000D02*
X150007000Y-117983000D01*
X150007000Y-118237000D01*
X149987000Y-118237000D01*
X149987000Y-118257000D01*
X149733000Y-118257000D01*
X149733000Y-118237000D01*
X149713000Y-118237000D01*
X149713000Y-117983000D01*
X149733000Y-117983000D01*
X149733000Y-117963000D01*
X149987000Y-117963000D01*
X149987000Y-117983000D01*
X149987000Y-117983000D01*
G37*
X149987000Y-117983000D02*
X150007000Y-117983000D01*
X150007000Y-118237000D01*
X149987000Y-118237000D01*
X149987000Y-118257000D01*
X149733000Y-118257000D01*
X149733000Y-118237000D01*
X149713000Y-118237000D01*
X149713000Y-117983000D01*
X149733000Y-117983000D01*
X149733000Y-117963000D01*
X149987000Y-117963000D01*
X149987000Y-117983000D01*
G36*
X152527000Y-117983000D02*
X152547000Y-117983000D01*
X152547000Y-118237000D01*
X152527000Y-118237000D01*
X152527000Y-118257000D01*
X152273000Y-118257000D01*
X152273000Y-118237000D01*
X152253000Y-118237000D01*
X152253000Y-117983000D01*
X152273000Y-117983000D01*
X152273000Y-117963000D01*
X152527000Y-117963000D01*
X152527000Y-117983000D01*
X152527000Y-117983000D01*
G37*
X152527000Y-117983000D02*
X152547000Y-117983000D01*
X152547000Y-118237000D01*
X152527000Y-118237000D01*
X152527000Y-118257000D01*
X152273000Y-118257000D01*
X152273000Y-118237000D01*
X152253000Y-118237000D01*
X152253000Y-117983000D01*
X152273000Y-117983000D01*
X152273000Y-117963000D01*
X152527000Y-117963000D01*
X152527000Y-117983000D01*
G36*
X142763065Y-112062277D02*
X142792255Y-112217410D01*
X142792255Y-112351059D01*
X142782642Y-112341446D01*
X142873968Y-112432773D01*
X142894413Y-112441241D01*
X142952634Y-112529030D01*
X143175373Y-112751769D01*
X142337599Y-113589543D01*
X142172852Y-113836105D01*
X142115000Y-114126944D01*
X142115000Y-114315398D01*
X141747398Y-114683000D01*
X141538802Y-114683000D01*
X141367440Y-114511638D01*
X141367440Y-114325000D01*
X141323162Y-114089683D01*
X141184090Y-113873559D01*
X140971890Y-113728569D01*
X140720000Y-113677560D01*
X139610000Y-113677560D01*
X139374683Y-113721838D01*
X139158559Y-113860910D01*
X139013569Y-114073110D01*
X138962560Y-114325000D01*
X138962560Y-114841307D01*
X138882367Y-114961325D01*
X138882367Y-114961326D01*
X138814999Y-115300000D01*
X138815000Y-115300005D01*
X138815000Y-116914002D01*
X138610971Y-117050330D01*
X138430000Y-117321172D01*
X138249029Y-117050330D01*
X137762848Y-116725474D01*
X137189359Y-116611400D01*
X137130641Y-116611400D01*
X136557152Y-116725474D01*
X136070971Y-117050330D01*
X135965000Y-117208927D01*
X135965000Y-116157002D01*
X136140000Y-116192440D01*
X137250000Y-116192440D01*
X137485317Y-116148162D01*
X137701441Y-116009090D01*
X137846431Y-115796890D01*
X137897440Y-115545000D01*
X137897440Y-114423000D01*
X138074395Y-114423000D01*
X138074400Y-114423001D01*
X138356884Y-114366810D01*
X138413075Y-114355633D01*
X138700190Y-114163790D01*
X139207508Y-113656472D01*
X139429985Y-113704733D01*
X139682556Y-113657209D01*
X139896738Y-113515164D01*
X140258902Y-113153000D01*
X141122395Y-113153000D01*
X141122400Y-113153001D01*
X141415417Y-113094715D01*
X141461075Y-113085633D01*
X141748190Y-112893790D01*
X142813860Y-111828119D01*
X142763065Y-112062277D01*
X142763065Y-112062277D01*
G37*
X142763065Y-112062277D02*
X142792255Y-112217410D01*
X142792255Y-112351059D01*
X142782642Y-112341446D01*
X142873968Y-112432773D01*
X142894413Y-112441241D01*
X142952634Y-112529030D01*
X143175373Y-112751769D01*
X142337599Y-113589543D01*
X142172852Y-113836105D01*
X142115000Y-114126944D01*
X142115000Y-114315398D01*
X141747398Y-114683000D01*
X141538802Y-114683000D01*
X141367440Y-114511638D01*
X141367440Y-114325000D01*
X141323162Y-114089683D01*
X141184090Y-113873559D01*
X140971890Y-113728569D01*
X140720000Y-113677560D01*
X139610000Y-113677560D01*
X139374683Y-113721838D01*
X139158559Y-113860910D01*
X139013569Y-114073110D01*
X138962560Y-114325000D01*
X138962560Y-114841307D01*
X138882367Y-114961325D01*
X138882367Y-114961326D01*
X138814999Y-115300000D01*
X138815000Y-115300005D01*
X138815000Y-116914002D01*
X138610971Y-117050330D01*
X138430000Y-117321172D01*
X138249029Y-117050330D01*
X137762848Y-116725474D01*
X137189359Y-116611400D01*
X137130641Y-116611400D01*
X136557152Y-116725474D01*
X136070971Y-117050330D01*
X135965000Y-117208927D01*
X135965000Y-116157002D01*
X136140000Y-116192440D01*
X137250000Y-116192440D01*
X137485317Y-116148162D01*
X137701441Y-116009090D01*
X137846431Y-115796890D01*
X137897440Y-115545000D01*
X137897440Y-114423000D01*
X138074395Y-114423000D01*
X138074400Y-114423001D01*
X138356884Y-114366810D01*
X138413075Y-114355633D01*
X138700190Y-114163790D01*
X139207508Y-113656472D01*
X139429985Y-113704733D01*
X139682556Y-113657209D01*
X139896738Y-113515164D01*
X140258902Y-113153000D01*
X141122395Y-113153000D01*
X141122400Y-113153001D01*
X141415417Y-113094715D01*
X141461075Y-113085633D01*
X141748190Y-112893790D01*
X142813860Y-111828119D01*
X142763065Y-112062277D01*
G36*
X142750000Y-116707005D02*
X142269359Y-116611400D01*
X142210641Y-116611400D01*
X141637152Y-116725474D01*
X141150971Y-117050330D01*
X140970000Y-117321172D01*
X140789029Y-117050330D01*
X140585000Y-116914002D01*
X140585000Y-116192440D01*
X140720000Y-116192440D01*
X140951718Y-116148839D01*
X141224000Y-116203000D01*
X142062200Y-116203000D01*
X142353039Y-116145148D01*
X142599601Y-115980401D01*
X142750000Y-115830002D01*
X142750000Y-116707005D01*
X142750000Y-116707005D01*
G37*
X142750000Y-116707005D02*
X142269359Y-116611400D01*
X142210641Y-116611400D01*
X141637152Y-116725474D01*
X141150971Y-117050330D01*
X140970000Y-117321172D01*
X140789029Y-117050330D01*
X140585000Y-116914002D01*
X140585000Y-116192440D01*
X140720000Y-116192440D01*
X140951718Y-116148839D01*
X141224000Y-116203000D01*
X142062200Y-116203000D01*
X142353039Y-116145148D01*
X142599601Y-115980401D01*
X142750000Y-115830002D01*
X142750000Y-116707005D01*
G36*
X142878243Y-107797844D02*
X142775858Y-107865746D01*
X142386949Y-108254655D01*
X142251864Y-108452358D01*
X142197380Y-108703520D01*
X142244904Y-108956091D01*
X142386949Y-109170273D01*
X142677748Y-109461072D01*
X142537636Y-109601184D01*
X142476482Y-109540030D01*
X142251975Y-109540030D01*
X141474688Y-110317317D01*
X141488831Y-110331460D01*
X141309226Y-110511065D01*
X141295083Y-110496922D01*
X141280941Y-110511065D01*
X141101336Y-110331460D01*
X141115478Y-110317317D01*
X140426579Y-109628418D01*
X140202073Y-109628418D01*
X139784484Y-110046006D01*
X139687812Y-110279396D01*
X139687811Y-110479135D01*
X139624649Y-110465433D01*
X139372078Y-110512957D01*
X139157896Y-110655002D01*
X138366640Y-111446258D01*
X138265217Y-111252000D01*
X136906000Y-111252000D01*
X136906000Y-111272000D01*
X136652000Y-111272000D01*
X136652000Y-111252000D01*
X136632000Y-111252000D01*
X136632000Y-110998000D01*
X136652000Y-110998000D01*
X136652000Y-110978000D01*
X136906000Y-110978000D01*
X136906000Y-110998000D01*
X138265217Y-110998000D01*
X138386358Y-110765974D01*
X138383709Y-110750209D01*
X138129732Y-110222964D01*
X137713931Y-109851461D01*
X138023415Y-109644670D01*
X138304292Y-109224307D01*
X140606184Y-109224307D01*
X140606184Y-109448813D01*
X141295083Y-110137712D01*
X142072370Y-109360425D01*
X142072370Y-109135918D01*
X141921798Y-108985346D01*
X141743169Y-108806718D01*
X141509780Y-108710045D01*
X141257162Y-108710046D01*
X141023772Y-108806718D01*
X140606184Y-109224307D01*
X138304292Y-109224307D01*
X138348271Y-109158489D01*
X138462345Y-108585000D01*
X138361381Y-108077421D01*
X138744802Y-107694000D01*
X142949197Y-107694000D01*
X142878243Y-107797844D01*
X142878243Y-107797844D01*
G37*
X142878243Y-107797844D02*
X142775858Y-107865746D01*
X142386949Y-108254655D01*
X142251864Y-108452358D01*
X142197380Y-108703520D01*
X142244904Y-108956091D01*
X142386949Y-109170273D01*
X142677748Y-109461072D01*
X142537636Y-109601184D01*
X142476482Y-109540030D01*
X142251975Y-109540030D01*
X141474688Y-110317317D01*
X141488831Y-110331460D01*
X141309226Y-110511065D01*
X141295083Y-110496922D01*
X141280941Y-110511065D01*
X141101336Y-110331460D01*
X141115478Y-110317317D01*
X140426579Y-109628418D01*
X140202073Y-109628418D01*
X139784484Y-110046006D01*
X139687812Y-110279396D01*
X139687811Y-110479135D01*
X139624649Y-110465433D01*
X139372078Y-110512957D01*
X139157896Y-110655002D01*
X138366640Y-111446258D01*
X138265217Y-111252000D01*
X136906000Y-111252000D01*
X136906000Y-111272000D01*
X136652000Y-111272000D01*
X136652000Y-111252000D01*
X136632000Y-111252000D01*
X136632000Y-110998000D01*
X136652000Y-110998000D01*
X136652000Y-110978000D01*
X136906000Y-110978000D01*
X136906000Y-110998000D01*
X138265217Y-110998000D01*
X138386358Y-110765974D01*
X138383709Y-110750209D01*
X138129732Y-110222964D01*
X137713931Y-109851461D01*
X138023415Y-109644670D01*
X138304292Y-109224307D01*
X140606184Y-109224307D01*
X140606184Y-109448813D01*
X141295083Y-110137712D01*
X142072370Y-109360425D01*
X142072370Y-109135918D01*
X141921798Y-108985346D01*
X141743169Y-108806718D01*
X141509780Y-108710045D01*
X141257162Y-108710046D01*
X141023772Y-108806718D01*
X140606184Y-109224307D01*
X138304292Y-109224307D01*
X138348271Y-109158489D01*
X138462345Y-108585000D01*
X138361381Y-108077421D01*
X138744802Y-107694000D01*
X142949197Y-107694000D01*
X142878243Y-107797844D01*
G36*
X151756114Y-109028852D02*
X151864988Y-109103243D01*
X151932890Y-109205628D01*
X152028380Y-109301118D01*
X151706833Y-109300838D01*
X151363057Y-109442883D01*
X151099808Y-109705673D01*
X150957162Y-110049201D01*
X150956838Y-110421167D01*
X150973268Y-110460930D01*
X150620000Y-110814198D01*
X150620000Y-109057368D01*
X150816201Y-109138838D01*
X151188167Y-109139162D01*
X151531943Y-108997117D01*
X151628245Y-108900983D01*
X151756114Y-109028852D01*
X151756114Y-109028852D01*
G37*
X151756114Y-109028852D02*
X151864988Y-109103243D01*
X151932890Y-109205628D01*
X152028380Y-109301118D01*
X151706833Y-109300838D01*
X151363057Y-109442883D01*
X151099808Y-109705673D01*
X150957162Y-110049201D01*
X150956838Y-110421167D01*
X150973268Y-110460930D01*
X150620000Y-110814198D01*
X150620000Y-109057368D01*
X150816201Y-109138838D01*
X151188167Y-109139162D01*
X151531943Y-108997117D01*
X151628245Y-108900983D01*
X151756114Y-109028852D01*
G36*
X138047990Y-96513980D02*
X138092268Y-96749297D01*
X138231340Y-96965421D01*
X138443540Y-97110411D01*
X138695430Y-97161420D01*
X140694410Y-97161420D01*
X140929727Y-97117142D01*
X141145851Y-96978070D01*
X141290841Y-96765870D01*
X141341850Y-96513980D01*
X141341850Y-94436000D01*
X146948150Y-94436000D01*
X146948150Y-96193000D01*
X144881600Y-96193000D01*
X144562059Y-96256561D01*
X144291166Y-96437566D01*
X142931495Y-97797237D01*
X142869668Y-97647603D01*
X142563409Y-97340810D01*
X142163058Y-97174569D01*
X141729564Y-97174191D01*
X141328923Y-97339732D01*
X141022130Y-97645991D01*
X140855889Y-98046342D01*
X140855511Y-98479836D01*
X141021052Y-98880477D01*
X141327311Y-99187270D01*
X141713237Y-99347521D01*
X141709800Y-99364800D01*
X141709800Y-99445482D01*
X141698179Y-99462490D01*
X141647170Y-99714380D01*
X141647170Y-102215620D01*
X141691448Y-102450937D01*
X141830520Y-102667061D01*
X142042720Y-102812051D01*
X142294610Y-102863060D01*
X142584900Y-102863060D01*
X142584900Y-104298214D01*
X142642752Y-104589053D01*
X142807499Y-104835615D01*
X143256884Y-105285000D01*
X138223648Y-105285000D01*
X138023415Y-104985330D01*
X138009087Y-104975757D01*
X138030317Y-104971762D01*
X138246441Y-104832690D01*
X138391431Y-104620490D01*
X138442440Y-104368600D01*
X138442440Y-102641400D01*
X138435392Y-102603944D01*
X138443540Y-102609511D01*
X138695430Y-102660520D01*
X140694410Y-102660520D01*
X140929727Y-102616242D01*
X141145851Y-102477170D01*
X141290841Y-102264970D01*
X141341850Y-102013080D01*
X141341850Y-99513720D01*
X141297572Y-99278403D01*
X141158500Y-99062279D01*
X140946300Y-98917289D01*
X140694410Y-98866280D01*
X138695430Y-98866280D01*
X138460113Y-98910558D01*
X138243989Y-99049630D01*
X138098999Y-99261830D01*
X138047990Y-99513720D01*
X138047990Y-102013080D01*
X138055038Y-102050536D01*
X138046890Y-102044969D01*
X137795000Y-101993960D01*
X135965000Y-101993960D01*
X135965000Y-95544092D01*
X137073091Y-94436000D01*
X138047990Y-94436000D01*
X138047990Y-96513980D01*
X138047990Y-96513980D01*
G37*
X138047990Y-96513980D02*
X138092268Y-96749297D01*
X138231340Y-96965421D01*
X138443540Y-97110411D01*
X138695430Y-97161420D01*
X140694410Y-97161420D01*
X140929727Y-97117142D01*
X141145851Y-96978070D01*
X141290841Y-96765870D01*
X141341850Y-96513980D01*
X141341850Y-94436000D01*
X146948150Y-94436000D01*
X146948150Y-96193000D01*
X144881600Y-96193000D01*
X144562059Y-96256561D01*
X144291166Y-96437566D01*
X142931495Y-97797237D01*
X142869668Y-97647603D01*
X142563409Y-97340810D01*
X142163058Y-97174569D01*
X141729564Y-97174191D01*
X141328923Y-97339732D01*
X141022130Y-97645991D01*
X140855889Y-98046342D01*
X140855511Y-98479836D01*
X141021052Y-98880477D01*
X141327311Y-99187270D01*
X141713237Y-99347521D01*
X141709800Y-99364800D01*
X141709800Y-99445482D01*
X141698179Y-99462490D01*
X141647170Y-99714380D01*
X141647170Y-102215620D01*
X141691448Y-102450937D01*
X141830520Y-102667061D01*
X142042720Y-102812051D01*
X142294610Y-102863060D01*
X142584900Y-102863060D01*
X142584900Y-104298214D01*
X142642752Y-104589053D01*
X142807499Y-104835615D01*
X143256884Y-105285000D01*
X138223648Y-105285000D01*
X138023415Y-104985330D01*
X138009087Y-104975757D01*
X138030317Y-104971762D01*
X138246441Y-104832690D01*
X138391431Y-104620490D01*
X138442440Y-104368600D01*
X138442440Y-102641400D01*
X138435392Y-102603944D01*
X138443540Y-102609511D01*
X138695430Y-102660520D01*
X140694410Y-102660520D01*
X140929727Y-102616242D01*
X141145851Y-102477170D01*
X141290841Y-102264970D01*
X141341850Y-102013080D01*
X141341850Y-99513720D01*
X141297572Y-99278403D01*
X141158500Y-99062279D01*
X140946300Y-98917289D01*
X140694410Y-98866280D01*
X138695430Y-98866280D01*
X138460113Y-98910558D01*
X138243989Y-99049630D01*
X138098999Y-99261830D01*
X138047990Y-99513720D01*
X138047990Y-102013080D01*
X138055038Y-102050536D01*
X138046890Y-102044969D01*
X137795000Y-101993960D01*
X135965000Y-101993960D01*
X135965000Y-95544092D01*
X137073091Y-94436000D01*
X138047990Y-94436000D01*
X138047990Y-96513980D01*
G36*
X147685052Y-98878720D02*
X147469281Y-98878720D01*
X147235892Y-98975393D01*
X147057263Y-99154021D01*
X146960590Y-99387410D01*
X146960590Y-100477650D01*
X147119340Y-100636400D01*
X148468080Y-100636400D01*
X148468080Y-100616400D01*
X148722080Y-100616400D01*
X148722080Y-100636400D01*
X150070820Y-100636400D01*
X150229570Y-100477650D01*
X150229570Y-99534000D01*
X150254554Y-99534000D01*
X150282838Y-99684317D01*
X150421910Y-99900441D01*
X150490006Y-99946969D01*
X150347673Y-100089302D01*
X150251000Y-100322691D01*
X150251000Y-100913250D01*
X150409750Y-101072000D01*
X151384000Y-101072000D01*
X151384000Y-101052000D01*
X151638000Y-101052000D01*
X151638000Y-101072000D01*
X151658000Y-101072000D01*
X151658000Y-101326000D01*
X151638000Y-101326000D01*
X151638000Y-101346000D01*
X151384000Y-101346000D01*
X151384000Y-101326000D01*
X150409750Y-101326000D01*
X150251000Y-101484750D01*
X150251000Y-101738998D01*
X150229570Y-101738998D01*
X150229570Y-101049150D01*
X150070820Y-100890400D01*
X148722080Y-100890400D01*
X148722080Y-100910400D01*
X148468080Y-100910400D01*
X148468080Y-100890400D01*
X147119340Y-100890400D01*
X146960590Y-101049150D01*
X146960590Y-102139390D01*
X147057263Y-102372779D01*
X147171843Y-102487359D01*
X145766599Y-103892603D01*
X145601852Y-104139165D01*
X145567039Y-104314181D01*
X144905000Y-103652142D01*
X144905000Y-102863060D01*
X145195290Y-102863060D01*
X145335185Y-102836737D01*
X145368701Y-102850620D01*
X145461355Y-102850620D01*
X145606155Y-102705820D01*
X145646731Y-102679710D01*
X145791721Y-102467510D01*
X145842730Y-102215620D01*
X145842730Y-101092000D01*
X145870295Y-101092000D01*
X145870295Y-102691870D01*
X146029045Y-102850620D01*
X146121699Y-102850620D01*
X146355088Y-102753947D01*
X146533717Y-102575319D01*
X146630390Y-102341930D01*
X146630390Y-101250750D01*
X146471640Y-101092000D01*
X145870295Y-101092000D01*
X145842730Y-101092000D01*
X145842730Y-100818000D01*
X145870295Y-100818000D01*
X145870295Y-100838000D01*
X146471640Y-100838000D01*
X146630390Y-100679250D01*
X146630390Y-99588070D01*
X146533717Y-99354681D01*
X146532901Y-99353865D01*
X146560436Y-99353889D01*
X146961077Y-99188348D01*
X147267870Y-98882089D01*
X147391262Y-98584930D01*
X147685052Y-98878720D01*
X147685052Y-98878720D01*
G37*
X147685052Y-98878720D02*
X147469281Y-98878720D01*
X147235892Y-98975393D01*
X147057263Y-99154021D01*
X146960590Y-99387410D01*
X146960590Y-100477650D01*
X147119340Y-100636400D01*
X148468080Y-100636400D01*
X148468080Y-100616400D01*
X148722080Y-100616400D01*
X148722080Y-100636400D01*
X150070820Y-100636400D01*
X150229570Y-100477650D01*
X150229570Y-99534000D01*
X150254554Y-99534000D01*
X150282838Y-99684317D01*
X150421910Y-99900441D01*
X150490006Y-99946969D01*
X150347673Y-100089302D01*
X150251000Y-100322691D01*
X150251000Y-100913250D01*
X150409750Y-101072000D01*
X151384000Y-101072000D01*
X151384000Y-101052000D01*
X151638000Y-101052000D01*
X151638000Y-101072000D01*
X151658000Y-101072000D01*
X151658000Y-101326000D01*
X151638000Y-101326000D01*
X151638000Y-101346000D01*
X151384000Y-101346000D01*
X151384000Y-101326000D01*
X150409750Y-101326000D01*
X150251000Y-101484750D01*
X150251000Y-101738998D01*
X150229570Y-101738998D01*
X150229570Y-101049150D01*
X150070820Y-100890400D01*
X148722080Y-100890400D01*
X148722080Y-100910400D01*
X148468080Y-100910400D01*
X148468080Y-100890400D01*
X147119340Y-100890400D01*
X146960590Y-101049150D01*
X146960590Y-102139390D01*
X147057263Y-102372779D01*
X147171843Y-102487359D01*
X145766599Y-103892603D01*
X145601852Y-104139165D01*
X145567039Y-104314181D01*
X144905000Y-103652142D01*
X144905000Y-102863060D01*
X145195290Y-102863060D01*
X145335185Y-102836737D01*
X145368701Y-102850620D01*
X145461355Y-102850620D01*
X145606155Y-102705820D01*
X145646731Y-102679710D01*
X145791721Y-102467510D01*
X145842730Y-102215620D01*
X145842730Y-101092000D01*
X145870295Y-101092000D01*
X145870295Y-102691870D01*
X146029045Y-102850620D01*
X146121699Y-102850620D01*
X146355088Y-102753947D01*
X146533717Y-102575319D01*
X146630390Y-102341930D01*
X146630390Y-101250750D01*
X146471640Y-101092000D01*
X145870295Y-101092000D01*
X145842730Y-101092000D01*
X145842730Y-100818000D01*
X145870295Y-100818000D01*
X145870295Y-100838000D01*
X146471640Y-100838000D01*
X146630390Y-100679250D01*
X146630390Y-99588070D01*
X146533717Y-99354681D01*
X146532901Y-99353865D01*
X146560436Y-99353889D01*
X146961077Y-99188348D01*
X147267870Y-98882089D01*
X147391262Y-98584930D01*
X147685052Y-98878720D01*
G36*
X158890085Y-97988887D02*
X158862000Y-98056691D01*
X158862000Y-98647250D01*
X159020750Y-98806000D01*
X160020000Y-98806000D01*
X160020000Y-98786000D01*
X160274000Y-98786000D01*
X160274000Y-98806000D01*
X160294000Y-98806000D01*
X160294000Y-99060000D01*
X160274000Y-99060000D01*
X160274000Y-100159250D01*
X160432750Y-100318000D01*
X160657000Y-100318000D01*
X160657000Y-103526701D01*
X160528000Y-103501041D01*
X160012353Y-103603610D01*
X159960148Y-103341161D01*
X159795401Y-103094599D01*
X158779401Y-102078599D01*
X158532839Y-101913852D01*
X158242000Y-101856000D01*
X156508004Y-101856000D01*
X156351050Y-101887220D01*
X156351050Y-101840030D01*
X156192300Y-101681280D01*
X155443000Y-101681280D01*
X155443000Y-101701280D01*
X155189000Y-101701280D01*
X155189000Y-101681280D01*
X155169000Y-101681280D01*
X155169000Y-101427280D01*
X155189000Y-101427280D01*
X155189000Y-101407280D01*
X155443000Y-101407280D01*
X155443000Y-101427280D01*
X156192300Y-101427280D01*
X156351050Y-101268530D01*
X156351050Y-101128824D01*
X156601000Y-101179440D01*
X157851000Y-101179440D01*
X158086317Y-101135162D01*
X158302441Y-100996090D01*
X158447431Y-100783890D01*
X158498440Y-100532000D01*
X158498440Y-99218750D01*
X158862000Y-99218750D01*
X158862000Y-99809309D01*
X158958673Y-100042698D01*
X159137301Y-100221327D01*
X159370690Y-100318000D01*
X159861250Y-100318000D01*
X160020000Y-100159250D01*
X160020000Y-99060000D01*
X159020750Y-99060000D01*
X158862000Y-99218750D01*
X158498440Y-99218750D01*
X158498440Y-99032000D01*
X158454162Y-98796683D01*
X158315090Y-98580559D01*
X158246994Y-98534031D01*
X158389327Y-98391698D01*
X158486000Y-98158309D01*
X158486000Y-97584802D01*
X158890085Y-97988887D01*
X158890085Y-97988887D01*
G37*
X158890085Y-97988887D02*
X158862000Y-98056691D01*
X158862000Y-98647250D01*
X159020750Y-98806000D01*
X160020000Y-98806000D01*
X160020000Y-98786000D01*
X160274000Y-98786000D01*
X160274000Y-98806000D01*
X160294000Y-98806000D01*
X160294000Y-99060000D01*
X160274000Y-99060000D01*
X160274000Y-100159250D01*
X160432750Y-100318000D01*
X160657000Y-100318000D01*
X160657000Y-103526701D01*
X160528000Y-103501041D01*
X160012353Y-103603610D01*
X159960148Y-103341161D01*
X159795401Y-103094599D01*
X158779401Y-102078599D01*
X158532839Y-101913852D01*
X158242000Y-101856000D01*
X156508004Y-101856000D01*
X156351050Y-101887220D01*
X156351050Y-101840030D01*
X156192300Y-101681280D01*
X155443000Y-101681280D01*
X155443000Y-101701280D01*
X155189000Y-101701280D01*
X155189000Y-101681280D01*
X155169000Y-101681280D01*
X155169000Y-101427280D01*
X155189000Y-101427280D01*
X155189000Y-101407280D01*
X155443000Y-101407280D01*
X155443000Y-101427280D01*
X156192300Y-101427280D01*
X156351050Y-101268530D01*
X156351050Y-101128824D01*
X156601000Y-101179440D01*
X157851000Y-101179440D01*
X158086317Y-101135162D01*
X158302441Y-100996090D01*
X158447431Y-100783890D01*
X158498440Y-100532000D01*
X158498440Y-99218750D01*
X158862000Y-99218750D01*
X158862000Y-99809309D01*
X158958673Y-100042698D01*
X159137301Y-100221327D01*
X159370690Y-100318000D01*
X159861250Y-100318000D01*
X160020000Y-100159250D01*
X160020000Y-99060000D01*
X159020750Y-99060000D01*
X158862000Y-99218750D01*
X158498440Y-99218750D01*
X158498440Y-99032000D01*
X158454162Y-98796683D01*
X158315090Y-98580559D01*
X158246994Y-98534031D01*
X158389327Y-98391698D01*
X158486000Y-98158309D01*
X158486000Y-97584802D01*
X158890085Y-97988887D01*
G36*
X145255169Y-98046342D02*
X145254791Y-98479836D01*
X145420332Y-98880477D01*
X145618889Y-99079380D01*
X145618198Y-99079380D01*
X145618198Y-99234801D01*
X145613707Y-99231732D01*
X145461355Y-99079380D01*
X145368701Y-99079380D01*
X145331931Y-99094611D01*
X145195290Y-99066940D01*
X144694910Y-99066940D01*
X144539548Y-99096173D01*
X144395190Y-99066940D01*
X144023528Y-99066940D01*
X145227468Y-97863000D01*
X145331300Y-97863000D01*
X145255169Y-98046342D01*
X145255169Y-98046342D01*
G37*
X145255169Y-98046342D02*
X145254791Y-98479836D01*
X145420332Y-98880477D01*
X145618889Y-99079380D01*
X145618198Y-99079380D01*
X145618198Y-99234801D01*
X145613707Y-99231732D01*
X145461355Y-99079380D01*
X145368701Y-99079380D01*
X145331931Y-99094611D01*
X145195290Y-99066940D01*
X144694910Y-99066940D01*
X144539548Y-99096173D01*
X144395190Y-99066940D01*
X144023528Y-99066940D01*
X145227468Y-97863000D01*
X145331300Y-97863000D01*
X145255169Y-98046342D01*
G36*
X157353000Y-97155000D02*
X157373000Y-97155000D01*
X157373000Y-97409000D01*
X157353000Y-97409000D01*
X157353000Y-97429000D01*
X157099000Y-97429000D01*
X157099000Y-97409000D01*
X157079000Y-97409000D01*
X157079000Y-97155000D01*
X157099000Y-97155000D01*
X157099000Y-97135000D01*
X157353000Y-97135000D01*
X157353000Y-97155000D01*
X157353000Y-97155000D01*
G37*
X157353000Y-97155000D02*
X157373000Y-97155000D01*
X157373000Y-97409000D01*
X157353000Y-97409000D01*
X157353000Y-97429000D01*
X157099000Y-97429000D01*
X157099000Y-97409000D01*
X157079000Y-97409000D01*
X157079000Y-97155000D01*
X157099000Y-97155000D01*
X157099000Y-97135000D01*
X157353000Y-97135000D01*
X157353000Y-97155000D01*
M02*
