M48
;DRILL file {KiCad (2015-10-03 BZR 6242)-product} date Sat 14 Nov 2015 03:56:10 PM EET
;FORMAT={2:4/ absolute / inch / keep zeros}
FMAT,2
INCH,TZ
T1C0.016
T2C0.035
T3C0.040
%
G90
G05
M72
T1
X053850Y-044700
X055040Y-043180
X055700Y-045750
X055750Y-045150
X056400Y-038100
X056850Y-038950
X057350Y-043400
X057400Y-045350
X057750Y-042550
X057800Y-040550
X057850Y-043400
X057900Y-042850
X057950Y-042300
X058114Y-042012
X058412Y-041910
X059300Y-040600
X059450Y-042600
X059750Y-042950
X059800Y-043400
X060150Y-040850
X060240Y-038860
X060450Y-042150
X060653Y-041000
X061180Y-044500
X061400Y-043950
X061850Y-040750
X061860Y-044420
X061900Y-041900
X063050Y-039620
T2
X055884Y-038687
X057616Y-038687
T3
X053850Y-040750
X053850Y-041750
X053850Y-042750
X053850Y-043750
X054000Y-046500
X054000Y-047500
X055000Y-046500
X055000Y-047500
X056000Y-046500
X056000Y-047500
X057000Y-046500
X057000Y-047500
X058000Y-046500
X058000Y-047500
X059000Y-046500
X059000Y-047500
X060000Y-046500
X060000Y-047500
X060100Y-037500
X061000Y-046500
X061000Y-047500
X061100Y-037500
X062000Y-046500
X062000Y-047500
X063000Y-046500
X063000Y-047500
T0
M30
