G04 #@! TF.FileFunction,Legend,Bot*
%FSLAX46Y46*%
G04 Gerber Fmt 4.6, Leading zero omitted, Abs format (unit mm)*
G04 Created by KiCad (PCBNEW (2015-10-03 BZR 6242)-product) date Sat 14 Nov 2015 03:55:45 PM EET*
%MOMM*%
G01*
G04 APERTURE LIST*
%ADD10C,0.100000*%
%ADD11C,0.200000*%
%ADD12C,0.175000*%
%ADD13C,0.150000*%
%ADD14C,0.001000*%
%ADD15R,1.900000X1.700000*%
%ADD16R,1.510000X1.620000*%
%ADD17R,2.398980X2.899360*%
%ADD18C,1.309320*%
%ADD19R,0.900380X2.901240*%
%ADD20R,2.127200X2.127200*%
%ADD21O,2.127200X2.127200*%
%ADD22R,2.432000X2.432000*%
%ADD23O,2.432000X2.432000*%
%ADD24R,1.650000X1.900000*%
%ADD25R,2.432000X2.127200*%
%ADD26O,2.432000X2.127200*%
%ADD27R,1.700000X1.900000*%
%ADD28R,1.200100X2.200860*%
G04 APERTURE END LIST*
D10*
D11*
X156718000Y-108839000D02*
X156718000Y-110109000D01*
X159639000Y-108839000D02*
X154686000Y-108839000D01*
X159893000Y-108585000D02*
X159639000Y-108839000D01*
D12*
X156454333Y-109884333D02*
X156354333Y-109917667D01*
X156187666Y-109917667D01*
X156120999Y-109884333D01*
X156087666Y-109851000D01*
X156054333Y-109784333D01*
X156054333Y-109717667D01*
X156087666Y-109651000D01*
X156120999Y-109617667D01*
X156187666Y-109584333D01*
X156320999Y-109551000D01*
X156387666Y-109517667D01*
X156420999Y-109484333D01*
X156454333Y-109417667D01*
X156454333Y-109351000D01*
X156420999Y-109284333D01*
X156387666Y-109251000D01*
X156320999Y-109217667D01*
X156154333Y-109217667D01*
X156054333Y-109251000D01*
X155820999Y-109217667D02*
X155654332Y-109917667D01*
X155520999Y-109417667D01*
X155387666Y-109917667D01*
X155220999Y-109217667D01*
X154954332Y-109917667D02*
X154954332Y-109217667D01*
X154487666Y-109217667D02*
X154354333Y-109217667D01*
X154287666Y-109251000D01*
X154220999Y-109317667D01*
X154187666Y-109451000D01*
X154187666Y-109684333D01*
X154220999Y-109817667D01*
X154287666Y-109884333D01*
X154354333Y-109917667D01*
X154487666Y-109917667D01*
X154554333Y-109884333D01*
X154620999Y-109817667D01*
X154654333Y-109684333D01*
X154654333Y-109451000D01*
X154620999Y-109317667D01*
X154554333Y-109251000D01*
X154487666Y-109217667D01*
X156494000Y-107725333D02*
X156394000Y-107758667D01*
X156227333Y-107758667D01*
X156160666Y-107725333D01*
X156127333Y-107692000D01*
X156094000Y-107625333D01*
X156094000Y-107558667D01*
X156127333Y-107492000D01*
X156160666Y-107458667D01*
X156227333Y-107425333D01*
X156360666Y-107392000D01*
X156427333Y-107358667D01*
X156460666Y-107325333D01*
X156494000Y-107258667D01*
X156494000Y-107192000D01*
X156460666Y-107125333D01*
X156427333Y-107092000D01*
X156360666Y-107058667D01*
X156194000Y-107058667D01*
X156094000Y-107092000D01*
X155860666Y-107058667D02*
X155693999Y-107758667D01*
X155560666Y-107258667D01*
X155427333Y-107758667D01*
X155260666Y-107058667D01*
X154593999Y-107692000D02*
X154627333Y-107725333D01*
X154727333Y-107758667D01*
X154793999Y-107758667D01*
X154893999Y-107725333D01*
X154960666Y-107658667D01*
X154993999Y-107592000D01*
X155027333Y-107458667D01*
X155027333Y-107358667D01*
X154993999Y-107225333D01*
X154960666Y-107158667D01*
X154893999Y-107092000D01*
X154793999Y-107058667D01*
X154727333Y-107058667D01*
X154627333Y-107092000D01*
X154593999Y-107125333D01*
X154293999Y-107758667D02*
X154293999Y-107058667D01*
X153893999Y-107758667D02*
X154193999Y-107358667D01*
X153893999Y-107058667D02*
X154293999Y-107458667D01*
D11*
X161518476Y-102685905D02*
X161023238Y-102685905D01*
X161289905Y-102990667D01*
X161175619Y-102990667D01*
X161099429Y-103028762D01*
X161061333Y-103066857D01*
X161023238Y-103143048D01*
X161023238Y-103333524D01*
X161061333Y-103409714D01*
X161099429Y-103447810D01*
X161175619Y-103485905D01*
X161404191Y-103485905D01*
X161480381Y-103447810D01*
X161518476Y-103409714D01*
X160794667Y-102685905D02*
X160528000Y-103485905D01*
X160261333Y-102685905D01*
X160070857Y-102685905D02*
X159575619Y-102685905D01*
X159842286Y-102990667D01*
X159728000Y-102990667D01*
X159651810Y-103028762D01*
X159613714Y-103066857D01*
X159575619Y-103143048D01*
X159575619Y-103333524D01*
X159613714Y-103409714D01*
X159651810Y-103447810D01*
X159728000Y-103485905D01*
X159956572Y-103485905D01*
X160032762Y-103447810D01*
X160070857Y-103409714D01*
D13*
X158937999Y-102820000D02*
X158837999Y-102853333D01*
X158804666Y-102886667D01*
X158771332Y-102953333D01*
X158771332Y-103053333D01*
X158804666Y-103120000D01*
X158837999Y-103153333D01*
X158904666Y-103186667D01*
X159171332Y-103186667D01*
X159171332Y-102486667D01*
X158937999Y-102486667D01*
X158871332Y-102520000D01*
X158837999Y-102553333D01*
X158804666Y-102620000D01*
X158804666Y-102686667D01*
X158837999Y-102753333D01*
X158871332Y-102786667D01*
X158937999Y-102820000D01*
X159171332Y-102820000D01*
X158337999Y-102486667D02*
X158204666Y-102486667D01*
X158137999Y-102520000D01*
X158071332Y-102586667D01*
X158037999Y-102720000D01*
X158037999Y-102953333D01*
X158071332Y-103086667D01*
X158137999Y-103153333D01*
X158204666Y-103186667D01*
X158337999Y-103186667D01*
X158404666Y-103153333D01*
X158471332Y-103086667D01*
X158504666Y-102953333D01*
X158504666Y-102720000D01*
X158471332Y-102586667D01*
X158404666Y-102520000D01*
X158337999Y-102486667D01*
X157604666Y-102486667D02*
X157471333Y-102486667D01*
X157404666Y-102520000D01*
X157337999Y-102586667D01*
X157304666Y-102720000D01*
X157304666Y-102953333D01*
X157337999Y-103086667D01*
X157404666Y-103153333D01*
X157471333Y-103186667D01*
X157604666Y-103186667D01*
X157671333Y-103153333D01*
X157737999Y-103086667D01*
X157771333Y-102953333D01*
X157771333Y-102720000D01*
X157737999Y-102586667D01*
X157671333Y-102520000D01*
X157604666Y-102486667D01*
X157104666Y-102486667D02*
X156704666Y-102486667D01*
X156904666Y-103186667D02*
X156904666Y-102486667D01*
D11*
X161137523Y-111614000D02*
X161213714Y-111575905D01*
X161327999Y-111575905D01*
X161442285Y-111614000D01*
X161518476Y-111690190D01*
X161556571Y-111766381D01*
X161594666Y-111918762D01*
X161594666Y-112033048D01*
X161556571Y-112185429D01*
X161518476Y-112261619D01*
X161442285Y-112337810D01*
X161327999Y-112375905D01*
X161251809Y-112375905D01*
X161137523Y-112337810D01*
X161099428Y-112299714D01*
X161099428Y-112033048D01*
X161251809Y-112033048D01*
X160756571Y-112375905D02*
X160756571Y-111575905D01*
X160299428Y-112375905D01*
X160299428Y-111575905D01*
X159918476Y-112375905D02*
X159918476Y-111575905D01*
X159728000Y-111575905D01*
X159613714Y-111614000D01*
X159537523Y-111690190D01*
X159499428Y-111766381D01*
X159461333Y-111918762D01*
X159461333Y-112033048D01*
X159499428Y-112185429D01*
X159537523Y-112261619D01*
X159613714Y-112337810D01*
X159728000Y-112375905D01*
X159918476Y-112375905D01*
X158426095Y-112375905D02*
X158692762Y-111994952D01*
X158883238Y-112375905D02*
X158883238Y-111575905D01*
X158578476Y-111575905D01*
X158502285Y-111614000D01*
X158464190Y-111652095D01*
X158426095Y-111728286D01*
X158426095Y-111842571D01*
X158464190Y-111918762D01*
X158502285Y-111956857D01*
X158578476Y-111994952D01*
X158883238Y-111994952D01*
X158121333Y-112337810D02*
X158007047Y-112375905D01*
X157816571Y-112375905D01*
X157740381Y-112337810D01*
X157702285Y-112299714D01*
X157664190Y-112223524D01*
X157664190Y-112147333D01*
X157702285Y-112071143D01*
X157740381Y-112033048D01*
X157816571Y-111994952D01*
X157968952Y-111956857D01*
X158045143Y-111918762D01*
X158083238Y-111880667D01*
X158121333Y-111804476D01*
X158121333Y-111728286D01*
X158083238Y-111652095D01*
X158045143Y-111614000D01*
X157968952Y-111575905D01*
X157778476Y-111575905D01*
X157664190Y-111614000D01*
X157435619Y-111575905D02*
X156978476Y-111575905D01*
X157207047Y-112375905D02*
X157207047Y-111575905D01*
X139515809Y-106406905D02*
X139782476Y-106025952D01*
X139972952Y-106406905D02*
X139972952Y-105606905D01*
X139668190Y-105606905D01*
X139591999Y-105645000D01*
X139553904Y-105683095D01*
X139515809Y-105759286D01*
X139515809Y-105873571D01*
X139553904Y-105949762D01*
X139591999Y-105987857D01*
X139668190Y-106025952D01*
X139972952Y-106025952D01*
X139249142Y-105606905D02*
X138715809Y-106406905D01*
X138715809Y-105606905D02*
X139249142Y-106406905D01*
X138411047Y-106406905D02*
X138411047Y-105606905D01*
X140220572Y-108146905D02*
X139763429Y-108146905D01*
X139992000Y-108946905D02*
X139992000Y-108146905D01*
X139572952Y-108146905D02*
X139039619Y-108946905D01*
X139039619Y-108146905D02*
X139572952Y-108946905D01*
X138582476Y-108146905D02*
X138430095Y-108146905D01*
X138353904Y-108185000D01*
X138277714Y-108261190D01*
X138239619Y-108413571D01*
X138239619Y-108680238D01*
X138277714Y-108832619D01*
X138353904Y-108908810D01*
X138430095Y-108946905D01*
X138582476Y-108946905D01*
X138658666Y-108908810D01*
X138734857Y-108832619D01*
X138772952Y-108680238D01*
X138772952Y-108413571D01*
X138734857Y-108261190D01*
X138658666Y-108185000D01*
X138582476Y-108146905D01*
D13*
X153716524Y-110109000D02*
X153504392Y-110321132D01*
X148590000Y-104982476D02*
X148377868Y-105194608D01*
X143463476Y-110109000D02*
X143675608Y-109896868D01*
X148590000Y-115235524D02*
X148802132Y-115023392D01*
X153716524Y-110109000D02*
X153504392Y-109896868D01*
X148590000Y-115235524D02*
X148377868Y-115023392D01*
X143463476Y-110109000D02*
X143675608Y-110321132D01*
X148590000Y-104982476D02*
X148802132Y-105194608D01*
X153504392Y-110321132D02*
X154370598Y-111187338D01*
X155911000Y-116064000D02*
X157111000Y-116064000D01*
X157111000Y-114314000D02*
X155911000Y-114314000D01*
X138747500Y-114935000D02*
X139128500Y-114935000D01*
X137731500Y-114935000D02*
X138112500Y-114935000D01*
X138112500Y-114935000D02*
X138747500Y-115316000D01*
X138747500Y-115316000D02*
X138747500Y-114554000D01*
X138747500Y-114554000D02*
X138112500Y-114935000D01*
X138112500Y-115443000D02*
X138112500Y-114427000D01*
X136430000Y-114035000D02*
X139970000Y-114035000D01*
X136430000Y-115835000D02*
X139970000Y-115835000D01*
D14*
X147995640Y-92363620D02*
X140294360Y-92363620D01*
X140294360Y-92363620D02*
X140294360Y-101563500D01*
X140294360Y-101563500D02*
X147995640Y-101563500D01*
X147995640Y-101563500D02*
X147995640Y-92363620D01*
D13*
X156718000Y-111379000D02*
X156718000Y-106299000D01*
X156438000Y-103479000D02*
X156438000Y-105029000D01*
X159258000Y-103759000D02*
X159258000Y-106299000D01*
X159258000Y-106299000D02*
X156718000Y-106299000D01*
X156718000Y-111379000D02*
X161798000Y-111379000D01*
X161798000Y-111379000D02*
X161798000Y-106299000D01*
X156438000Y-103479000D02*
X157988000Y-103479000D01*
X161798000Y-103759000D02*
X159258000Y-103759000D01*
X161798000Y-106299000D02*
X161798000Y-103759000D01*
X158076000Y-98032000D02*
X158076000Y-99032000D01*
X156376000Y-99032000D02*
X156376000Y-98032000D01*
X150661000Y-100449000D02*
X150661000Y-99449000D01*
X152361000Y-99449000D02*
X152361000Y-100449000D01*
X138079000Y-101955000D02*
X138079000Y-103505000D01*
X136779000Y-101955000D02*
X138079000Y-101955000D01*
X132588000Y-103378000D02*
X126746000Y-103378000D01*
X126746000Y-103378000D02*
X126746000Y-103632000D01*
X126746000Y-103632000D02*
X132588000Y-103632000D01*
X132588000Y-103632000D02*
X132588000Y-103505000D01*
X132588000Y-103505000D02*
X126746000Y-103505000D01*
X135255000Y-103251000D02*
X135636000Y-103251000D01*
X135255000Y-103759000D02*
X135636000Y-103759000D01*
X135255000Y-105791000D02*
X135636000Y-105791000D01*
X135255000Y-106299000D02*
X135636000Y-106299000D01*
X135255000Y-108331000D02*
X135636000Y-108331000D01*
X135255000Y-108839000D02*
X135636000Y-108839000D01*
X135255000Y-111379000D02*
X135636000Y-111379000D01*
X135255000Y-110871000D02*
X135636000Y-110871000D01*
X135255000Y-102235000D02*
X132715000Y-102235000D01*
X135255000Y-104775000D02*
X132715000Y-104775000D01*
X135255000Y-104775000D02*
X135255000Y-107315000D01*
X135255000Y-107315000D02*
X132715000Y-107315000D01*
X132715000Y-105791000D02*
X126619000Y-105791000D01*
X126619000Y-105791000D02*
X126619000Y-106299000D01*
X126619000Y-106299000D02*
X132715000Y-106299000D01*
X132715000Y-107315000D02*
X132715000Y-104775000D01*
X132715000Y-104775000D02*
X132715000Y-102235000D01*
X126619000Y-103759000D02*
X132715000Y-103759000D01*
X126619000Y-103251000D02*
X126619000Y-103759000D01*
X132715000Y-103251000D02*
X126619000Y-103251000D01*
X135255000Y-104775000D02*
X132715000Y-104775000D01*
X135255000Y-102235000D02*
X135255000Y-104775000D01*
X135255000Y-109855000D02*
X132715000Y-109855000D01*
X135255000Y-109855000D02*
X135255000Y-112395000D01*
X135255000Y-112395000D02*
X132715000Y-112395000D01*
X132715000Y-110871000D02*
X126619000Y-110871000D01*
X126619000Y-110871000D02*
X126619000Y-111379000D01*
X126619000Y-111379000D02*
X132715000Y-111379000D01*
X132715000Y-112395000D02*
X132715000Y-109855000D01*
X132715000Y-109855000D02*
X132715000Y-107315000D01*
X126619000Y-108839000D02*
X132715000Y-108839000D01*
X126619000Y-108331000D02*
X126619000Y-108839000D01*
X132715000Y-108331000D02*
X126619000Y-108331000D01*
X135255000Y-109855000D02*
X132715000Y-109855000D01*
X135255000Y-107315000D02*
X135255000Y-109855000D01*
X135255000Y-107315000D02*
X132715000Y-107315000D01*
X161022000Y-98183000D02*
X161022000Y-96983000D01*
X159272000Y-96983000D02*
X159272000Y-98183000D01*
X155865820Y-100103940D02*
X155865820Y-99402900D01*
X155865820Y-99402900D02*
X155616900Y-99402900D01*
X153066840Y-99402900D02*
X152866180Y-99402900D01*
X152866180Y-99402900D02*
X152866180Y-100103940D01*
X141365794Y-111448687D02*
X140658687Y-112155794D01*
X139456606Y-110953713D02*
X140163713Y-110246606D01*
%LPC*%
D10*
G36*
X154618085Y-111505536D02*
X153946333Y-112177288D01*
X152673541Y-110904496D01*
X153345293Y-110232744D01*
X154618085Y-111505536D01*
X154618085Y-111505536D01*
G37*
G36*
X150658288Y-115465333D02*
X149986536Y-116137085D01*
X148713744Y-114864293D01*
X149385496Y-114192541D01*
X150658288Y-115465333D01*
X150658288Y-115465333D01*
G37*
G36*
X147193464Y-116137085D02*
X146521712Y-115465333D01*
X147794504Y-114192541D01*
X148466256Y-114864293D01*
X147193464Y-116137085D01*
X147193464Y-116137085D01*
G37*
G36*
X143233667Y-112177288D02*
X142561915Y-111505536D01*
X143834707Y-110232744D01*
X144506459Y-110904496D01*
X143233667Y-112177288D01*
X143233667Y-112177288D01*
G37*
G36*
X144506459Y-109313504D02*
X143834707Y-109985256D01*
X142561915Y-108712464D01*
X143233667Y-108040712D01*
X144506459Y-109313504D01*
X144506459Y-109313504D01*
G37*
G36*
X148466256Y-105353707D02*
X147794504Y-106025459D01*
X146521712Y-104752667D01*
X147193464Y-104080915D01*
X148466256Y-105353707D01*
X148466256Y-105353707D01*
G37*
G36*
X149385496Y-106025459D02*
X148713744Y-105353707D01*
X149986536Y-104080915D01*
X150658288Y-104752667D01*
X149385496Y-106025459D01*
X149385496Y-106025459D01*
G37*
G36*
X153345293Y-109985256D02*
X152673541Y-109313504D01*
X153946333Y-108040712D01*
X154618085Y-108712464D01*
X153345293Y-109985256D01*
X153345293Y-109985256D01*
G37*
G36*
X154052400Y-112071221D02*
X153380648Y-112742973D01*
X152107856Y-111470181D01*
X152779608Y-110798429D01*
X154052400Y-112071221D01*
X154052400Y-112071221D01*
G37*
G36*
X153486715Y-112636906D02*
X152814963Y-113308658D01*
X151542171Y-112035866D01*
X152213923Y-111364114D01*
X153486715Y-112636906D01*
X153486715Y-112636906D01*
G37*
G36*
X152921029Y-113202592D02*
X152249277Y-113874344D01*
X150976485Y-112601552D01*
X151648237Y-111929800D01*
X152921029Y-113202592D01*
X152921029Y-113202592D01*
G37*
G36*
X152355344Y-113768277D02*
X151683592Y-114440029D01*
X150410800Y-113167237D01*
X151082552Y-112495485D01*
X152355344Y-113768277D01*
X152355344Y-113768277D01*
G37*
G36*
X151789658Y-114333963D02*
X151117906Y-115005715D01*
X149845114Y-113732923D01*
X150516866Y-113061171D01*
X151789658Y-114333963D01*
X151789658Y-114333963D01*
G37*
G36*
X151223973Y-114899648D02*
X150552221Y-115571400D01*
X149279429Y-114298608D01*
X149951181Y-113626856D01*
X151223973Y-114899648D01*
X151223973Y-114899648D01*
G37*
G36*
X146627779Y-115571400D02*
X145956027Y-114899648D01*
X147228819Y-113626856D01*
X147900571Y-114298608D01*
X146627779Y-115571400D01*
X146627779Y-115571400D01*
G37*
G36*
X146062094Y-115005715D02*
X145390342Y-114333963D01*
X146663134Y-113061171D01*
X147334886Y-113732923D01*
X146062094Y-115005715D01*
X146062094Y-115005715D01*
G37*
G36*
X145496408Y-114440029D02*
X144824656Y-113768277D01*
X146097448Y-112495485D01*
X146769200Y-113167237D01*
X145496408Y-114440029D01*
X145496408Y-114440029D01*
G37*
G36*
X144930723Y-113874344D02*
X144258971Y-113202592D01*
X145531763Y-111929800D01*
X146203515Y-112601552D01*
X144930723Y-113874344D01*
X144930723Y-113874344D01*
G37*
G36*
X144365037Y-113308658D02*
X143693285Y-112636906D01*
X144966077Y-111364114D01*
X145637829Y-112035866D01*
X144365037Y-113308658D01*
X144365037Y-113308658D01*
G37*
G36*
X143799352Y-112742973D02*
X143127600Y-112071221D01*
X144400392Y-110798429D01*
X145072144Y-111470181D01*
X143799352Y-112742973D01*
X143799352Y-112742973D01*
G37*
G36*
X145072144Y-108747819D02*
X144400392Y-109419571D01*
X143127600Y-108146779D01*
X143799352Y-107475027D01*
X145072144Y-108747819D01*
X145072144Y-108747819D01*
G37*
G36*
X145637829Y-108182134D02*
X144966077Y-108853886D01*
X143693285Y-107581094D01*
X144365037Y-106909342D01*
X145637829Y-108182134D01*
X145637829Y-108182134D01*
G37*
G36*
X146203515Y-107616448D02*
X145531763Y-108288200D01*
X144258971Y-107015408D01*
X144930723Y-106343656D01*
X146203515Y-107616448D01*
X146203515Y-107616448D01*
G37*
G36*
X146769200Y-107050763D02*
X146097448Y-107722515D01*
X144824656Y-106449723D01*
X145496408Y-105777971D01*
X146769200Y-107050763D01*
X146769200Y-107050763D01*
G37*
G36*
X147334886Y-106485077D02*
X146663134Y-107156829D01*
X145390342Y-105884037D01*
X146062094Y-105212285D01*
X147334886Y-106485077D01*
X147334886Y-106485077D01*
G37*
G36*
X147900571Y-105919392D02*
X147228819Y-106591144D01*
X145956027Y-105318352D01*
X146627779Y-104646600D01*
X147900571Y-105919392D01*
X147900571Y-105919392D01*
G37*
G36*
X149951181Y-106591144D02*
X149279429Y-105919392D01*
X150552221Y-104646600D01*
X151223973Y-105318352D01*
X149951181Y-106591144D01*
X149951181Y-106591144D01*
G37*
G36*
X150516866Y-107156829D02*
X149845114Y-106485077D01*
X151117906Y-105212285D01*
X151789658Y-105884037D01*
X150516866Y-107156829D01*
X150516866Y-107156829D01*
G37*
G36*
X151082552Y-107722515D02*
X150410800Y-107050763D01*
X151683592Y-105777971D01*
X152355344Y-106449723D01*
X151082552Y-107722515D01*
X151082552Y-107722515D01*
G37*
G36*
X151648237Y-108288200D02*
X150976485Y-107616448D01*
X152249277Y-106343656D01*
X152921029Y-107015408D01*
X151648237Y-108288200D01*
X151648237Y-108288200D01*
G37*
G36*
X152213923Y-108853886D02*
X151542171Y-108182134D01*
X152814963Y-106909342D01*
X153486715Y-107581094D01*
X152213923Y-108853886D01*
X152213923Y-108853886D01*
G37*
G36*
X152779608Y-109419571D02*
X152107856Y-108747819D01*
X153380648Y-107475027D01*
X154052400Y-108146779D01*
X152779608Y-109419571D01*
X152779608Y-109419571D01*
G37*
D15*
X157861000Y-115189000D03*
X155161000Y-115189000D03*
D16*
X136695000Y-114935000D03*
X140165000Y-114935000D03*
D17*
X139694920Y-95264300D03*
X139694920Y-100763400D03*
X148595080Y-100763400D03*
X148595080Y-95264300D03*
D18*
X141945360Y-98264040D03*
X146344640Y-98264040D03*
D19*
X145745200Y-100965000D03*
X144945100Y-100965000D03*
X144145000Y-100965000D03*
X143344900Y-100965000D03*
X142544800Y-100965000D03*
D20*
X157988000Y-105029000D03*
D21*
X160528000Y-105029000D03*
X157988000Y-107569000D03*
X160528000Y-107569000D03*
X157988000Y-110109000D03*
X160528000Y-110109000D03*
D22*
X152654000Y-95250000D03*
D23*
X155194000Y-95250000D03*
D20*
X160020000Y-120650000D03*
D21*
X160020000Y-118110000D03*
X157480000Y-120650000D03*
X157480000Y-118110000D03*
X154940000Y-120650000D03*
X154940000Y-118110000D03*
X152400000Y-120650000D03*
X152400000Y-118110000D03*
X149860000Y-120650000D03*
X149860000Y-118110000D03*
X147320000Y-120650000D03*
X147320000Y-118110000D03*
X144780000Y-120650000D03*
X144780000Y-118110000D03*
X142240000Y-120650000D03*
X142240000Y-118110000D03*
X139700000Y-120650000D03*
X139700000Y-118110000D03*
X137160000Y-120650000D03*
X137160000Y-118110000D03*
D24*
X157226000Y-99782000D03*
X157226000Y-97282000D03*
X151511000Y-98699000D03*
X151511000Y-101199000D03*
D25*
X136779000Y-103505000D03*
D26*
X136779000Y-106045000D03*
X136779000Y-108585000D03*
X136779000Y-111125000D03*
D27*
X160147000Y-96233000D03*
X160147000Y-98933000D03*
D28*
X155316000Y-101554280D03*
X153416000Y-101554280D03*
X154366000Y-98552000D03*
D10*
G36*
X139438929Y-113340198D02*
X138272202Y-112173471D01*
X139615705Y-110829968D01*
X140782432Y-111996695D01*
X139438929Y-113340198D01*
X139438929Y-113340198D01*
G37*
G36*
X141206695Y-111572432D02*
X140039968Y-110405705D01*
X141383471Y-109062202D01*
X142550198Y-110228929D01*
X141206695Y-111572432D01*
X141206695Y-111572432D01*
G37*
M02*
