G04 #@! TF.FileFunction,Copper,L1,Top,Signal*
%FSLAX46Y46*%
G04 Gerber Fmt 4.6, Leading zero omitted, Abs format (unit mm)*
G04 Created by KiCad (PCBNEW (2015-10-03 BZR 6242)-product) date Sat 14 Nov 2015 03:55:45 PM EET*
%MOMM*%
G01*
G04 APERTURE LIST*
%ADD10C,0.100000*%
%ADD11R,2.032000X0.762000*%
%ADD12R,0.762000X2.032000*%
%ADD13C,1.600000*%
%ADD14C,0.909320*%
%ADD15R,2.032000X2.032000*%
%ADD16O,2.032000X2.032000*%
%ADD17R,1.727200X1.727200*%
%ADD18O,1.727200X1.727200*%
%ADD19R,2.032000X1.727200*%
%ADD20O,2.032000X1.727200*%
%ADD21C,1.500000*%
%ADD22C,0.600000*%
%ADD23C,0.250000*%
%ADD24C,0.500000*%
%ADD25C,0.300000*%
%ADD26C,0.350000*%
%ADD27C,0.400000*%
%ADD28C,0.254000*%
G04 APERTURE END LIST*
D10*
D11*
X155575000Y-106680000D03*
X155575000Y-105410000D03*
X155575000Y-104140000D03*
X155575000Y-102870000D03*
D12*
X153670000Y-100965000D03*
X152400000Y-100965000D03*
X151130000Y-100965000D03*
X149860000Y-100965000D03*
X148590000Y-100965000D03*
X147320000Y-100965000D03*
X146050000Y-100965000D03*
X144780000Y-100965000D03*
X143510000Y-100965000D03*
D11*
X141605000Y-102870000D03*
X141605000Y-104140000D03*
X141605000Y-105410000D03*
X141605000Y-106680000D03*
X141605000Y-107950000D03*
X141605000Y-109220000D03*
X141605000Y-110490000D03*
D12*
X143510000Y-112395000D03*
X144780000Y-112395000D03*
X146050000Y-112395000D03*
X147320000Y-112395000D03*
X148590000Y-112395000D03*
X149860000Y-112395000D03*
X151130000Y-112395000D03*
X152400000Y-112395000D03*
X153670000Y-112395000D03*
D11*
X155575000Y-110490000D03*
X155575000Y-109220000D03*
X155575000Y-107950000D03*
D13*
X160528000Y-107569000D03*
X160528000Y-110109000D03*
X160528000Y-105029000D03*
D14*
X141945360Y-98264040D03*
X146344640Y-98264040D03*
D15*
X152654000Y-95250000D03*
D16*
X155194000Y-95250000D03*
D17*
X160020000Y-120650000D03*
D18*
X160020000Y-118110000D03*
X157480000Y-120650000D03*
X157480000Y-118110000D03*
X154940000Y-120650000D03*
X154940000Y-118110000D03*
X152400000Y-120650000D03*
X152400000Y-118110000D03*
X149860000Y-120650000D03*
X149860000Y-118110000D03*
X147320000Y-120650000D03*
X147320000Y-118110000D03*
X144780000Y-120650000D03*
X144780000Y-118110000D03*
X142240000Y-120650000D03*
X142240000Y-118110000D03*
X139700000Y-120650000D03*
X139700000Y-118110000D03*
X137160000Y-120650000D03*
X137160000Y-118110000D03*
D19*
X136779000Y-103505000D03*
D20*
X136779000Y-106045000D03*
X136779000Y-108585000D03*
X136779000Y-111125000D03*
D21*
X160528000Y-115316000D03*
X160528000Y-98958400D03*
D22*
X146939000Y-110236000D03*
X151892000Y-110236000D03*
X136779000Y-113538000D03*
X139801600Y-109677200D03*
X144399000Y-98933000D03*
X143256000Y-96774000D03*
X141605000Y-114681000D03*
X141478000Y-116205000D03*
X154059000Y-104140000D03*
X160147000Y-100633786D03*
X146812000Y-102997000D03*
X145669008Y-110236000D03*
X151765000Y-109093000D03*
X155956000Y-111633000D03*
X148367169Y-106452081D03*
X147610233Y-106711054D03*
X147193000Y-107442000D03*
X146685000Y-108077000D03*
X147066000Y-108839000D03*
X150622000Y-103124000D03*
X155397200Y-113030000D03*
X145796000Y-115189000D03*
X157099000Y-103505000D03*
X152781000Y-103759000D03*
X157226000Y-106426000D03*
X153543000Y-107061000D03*
X151003000Y-108204000D03*
X153009600Y-98704400D03*
X157124400Y-112826800D03*
D23*
X147320000Y-112395000D02*
X147320000Y-110236000D01*
X147320000Y-110236000D02*
X148213000Y-110236000D01*
D24*
X136779000Y-113538000D02*
X137287000Y-113538000D01*
X137287000Y-113538000D02*
X138684000Y-112141000D01*
X138684000Y-112141000D02*
X138684000Y-103509281D01*
D25*
X151892000Y-110236000D02*
X151892000Y-110018362D01*
X151892000Y-110018362D02*
X153960362Y-107950000D01*
X153960362Y-107950000D02*
X155575000Y-107950000D01*
X146939000Y-110236000D02*
X147363264Y-110236000D01*
X147363264Y-110236000D02*
X151892000Y-110236000D01*
D24*
X136779000Y-103505000D02*
X138679719Y-103505000D01*
X136779000Y-103505000D02*
X138432727Y-103505000D01*
D23*
X138679719Y-103505000D02*
X138432727Y-103505000D01*
D24*
X138684000Y-98171000D02*
X141605000Y-95250000D01*
X141605000Y-95250000D02*
X152654000Y-95250000D01*
X138684000Y-100235996D02*
X138684000Y-98171000D01*
X138684000Y-103509281D02*
X138684000Y-100235996D01*
D23*
X138684000Y-103509281D02*
X138679719Y-103505000D01*
X148213000Y-110236000D02*
X146939000Y-110236000D01*
X149987000Y-110236000D02*
X151892000Y-110236000D01*
X148590000Y-110236000D02*
X149987000Y-110236000D01*
X148590000Y-110236000D02*
X148680998Y-110236000D01*
X148213000Y-110236000D02*
X148590000Y-110236000D01*
X148590000Y-110236000D02*
X148590000Y-112395000D01*
X155956000Y-111633000D02*
X156210000Y-111887000D01*
X156210000Y-111887000D02*
X156210000Y-113182400D01*
X156210000Y-113182400D02*
X157480000Y-114452400D01*
X157480000Y-114452400D02*
X157480000Y-116888686D01*
X157480000Y-116888686D02*
X157480000Y-118110000D01*
D24*
X139801600Y-112877600D02*
X141605000Y-114681000D01*
X139801600Y-109677200D02*
X139827000Y-109651800D01*
X139827000Y-109651800D02*
X139827000Y-105791000D01*
X139827000Y-105791000D02*
X140208000Y-105410000D01*
X139801600Y-109677200D02*
X139801600Y-112877600D01*
D23*
X160020000Y-118110000D02*
X157480000Y-118110000D01*
X154940000Y-118110000D02*
X152400000Y-118110000D01*
X152400000Y-118110000D02*
X149860000Y-118110000D01*
X149860000Y-118110000D02*
X147320000Y-118110000D01*
X154686000Y-102870000D02*
X154059000Y-103497000D01*
X154059000Y-103497000D02*
X154059000Y-104140000D01*
X155575000Y-102870000D02*
X154686000Y-102870000D01*
X154059000Y-104140000D02*
X153797000Y-104140000D01*
X153797000Y-104140000D02*
X153289000Y-104648000D01*
X153289000Y-104648000D02*
X151511000Y-104648000D01*
X151384000Y-104521000D02*
X151375000Y-104521000D01*
X151511000Y-104648000D02*
X151384000Y-104521000D01*
X151375000Y-104521000D02*
X150982001Y-104128001D01*
D24*
X156972000Y-99568000D02*
X158037786Y-100633786D01*
X158037786Y-100633786D02*
X160147000Y-100633786D01*
X154305000Y-99568000D02*
X156972000Y-99568000D01*
X153670000Y-100203000D02*
X154305000Y-99568000D01*
X153670000Y-100965000D02*
X153670000Y-100203000D01*
D23*
X144145000Y-99187000D02*
X144399000Y-98933000D01*
D24*
X143510000Y-96774000D02*
X143256000Y-96774000D01*
X144145000Y-97409000D02*
X143510000Y-96774000D01*
X144145000Y-99187000D02*
X144145000Y-97409000D01*
D23*
X155575000Y-110490000D02*
X155575000Y-111252000D01*
X155575000Y-111252000D02*
X155956000Y-111633000D01*
X153670000Y-100965000D02*
X153670000Y-101567002D01*
X153670000Y-101567002D02*
X152400000Y-102837002D01*
X140081000Y-105283000D02*
X140081000Y-102588345D01*
X140081000Y-102588345D02*
X140081000Y-102362000D01*
X144145000Y-99187000D02*
X143129000Y-99187000D01*
X140081000Y-100838000D02*
X140081000Y-102588345D01*
X143129000Y-99187000D02*
X143002000Y-99314000D01*
X143002000Y-99314000D02*
X141605000Y-99314000D01*
X141605000Y-99314000D02*
X140081000Y-100838000D01*
X146685000Y-99187000D02*
X146812000Y-99187000D01*
X146812000Y-99187000D02*
X147320000Y-99695000D01*
X147320000Y-99695000D02*
X147320000Y-100965000D01*
X146685000Y-99187000D02*
X148209000Y-99187000D01*
X148209000Y-99187000D02*
X148590000Y-99568000D01*
X148590000Y-99568000D02*
X148590000Y-100965000D01*
X144780000Y-100965000D02*
X144780000Y-99822000D01*
X144780000Y-99822000D02*
X144145000Y-99187000D01*
X144145000Y-99187000D02*
X146050000Y-99187000D01*
X146050000Y-99187000D02*
X146685000Y-99187000D01*
X141605000Y-114681000D02*
X141605000Y-116078000D01*
X141605000Y-116078000D02*
X141478000Y-116205000D01*
X141605000Y-105410000D02*
X140208000Y-105410000D01*
X140208000Y-105410000D02*
X140081000Y-105283000D01*
X147828000Y-122047000D02*
X141097000Y-122047000D01*
X141097000Y-122047000D02*
X139700000Y-120650000D01*
X148590000Y-121285000D02*
X147828000Y-122047000D01*
X148590000Y-119507000D02*
X148590000Y-121285000D01*
X149860000Y-118237000D02*
X148590000Y-119507000D01*
X149860000Y-118110000D02*
X149860000Y-118237000D01*
X146812000Y-102997000D02*
X148303002Y-102997000D01*
X148303002Y-102997000D02*
X148590000Y-102710002D01*
D24*
X148590000Y-100965000D02*
X148590000Y-102710002D01*
X150982001Y-104128001D02*
X151109001Y-104128001D01*
X150728001Y-104128001D02*
X150982001Y-104128001D01*
X150007999Y-104128001D02*
X150728001Y-104128001D01*
X148590000Y-102710002D02*
X150007999Y-104128001D01*
X152400000Y-102837002D02*
X152400000Y-102710002D01*
X151109001Y-104128001D02*
X152400000Y-102837002D01*
D23*
X145969007Y-109936001D02*
X145669008Y-110236000D01*
X146431008Y-109474000D02*
X145969007Y-109936001D01*
X151384000Y-109474000D02*
X146431008Y-109474000D01*
X151765000Y-109093000D02*
X151384000Y-109474000D01*
X156210000Y-110490000D02*
X155575000Y-110490000D01*
X146050000Y-99187000D02*
X146050000Y-100965000D01*
X154940000Y-118110000D02*
X154940000Y-115828125D01*
X154940000Y-115828125D02*
X153665875Y-114554000D01*
X152400000Y-118110000D02*
X152400000Y-114935000D01*
X152400000Y-114935000D02*
X152781000Y-114554000D01*
X148980999Y-115071999D02*
X149860000Y-115951000D01*
X149860000Y-115951000D02*
X149860000Y-118110000D01*
X147320000Y-118110000D02*
X147320000Y-115787998D01*
X147320000Y-115787998D02*
X148035999Y-115071999D01*
X148035999Y-115071999D02*
X148980999Y-115071999D01*
D24*
X155575000Y-102870000D02*
X156210000Y-102870000D01*
X155575000Y-104140000D02*
X154059000Y-104140000D01*
X152400000Y-102710002D02*
X152400000Y-102481000D01*
X152400000Y-102481000D02*
X152400000Y-100965000D01*
X141478000Y-105537000D02*
X141605000Y-105410000D01*
X153665875Y-114554000D02*
X152781000Y-114554000D01*
X153670000Y-112395000D02*
X153670000Y-113030000D01*
X153670000Y-113030000D02*
X153665875Y-113034125D01*
X153665875Y-113034125D02*
X153665875Y-114554000D01*
X152781000Y-114554000D02*
X152400000Y-114173000D01*
X152400000Y-114173000D02*
X152400000Y-112395000D01*
D23*
X148362081Y-106452081D02*
X148367169Y-106452081D01*
X143510000Y-100965000D02*
X143510000Y-101600000D01*
X143510000Y-101600000D02*
X148362081Y-106452081D01*
X141605000Y-102870000D02*
X143769179Y-102870000D01*
X143769179Y-102870000D02*
X147610233Y-106711054D01*
X145923000Y-107442000D02*
X147193000Y-107442000D01*
X145034000Y-106553000D02*
X145923000Y-107442000D01*
X145034000Y-106553000D02*
X142621000Y-104140000D01*
X142621000Y-104140000D02*
X141605000Y-104140000D01*
X144272000Y-106680000D02*
X145669000Y-108077000D01*
X145669000Y-108077000D02*
X146685000Y-108077000D01*
X141605000Y-106680000D02*
X144272000Y-106680000D01*
X141605000Y-106680000D02*
X142240000Y-106680000D01*
X155575000Y-105410000D02*
X150495000Y-105410000D01*
X147365999Y-108539001D02*
X147066000Y-108839000D01*
X150495000Y-105410000D02*
X147365999Y-108539001D01*
X155194000Y-95250000D02*
X155194000Y-95429524D01*
X154178001Y-96445523D02*
X151027262Y-99596262D01*
X155194000Y-95429524D02*
X154178001Y-96445523D01*
X150622000Y-103124000D02*
X151130000Y-102616000D01*
X151130000Y-102616000D02*
X151130000Y-100965000D01*
X149860000Y-99596262D02*
X149860000Y-100965000D01*
X151130000Y-100965000D02*
X151130000Y-99699000D01*
X151130000Y-99699000D02*
X151027262Y-99596262D01*
X151027262Y-99596262D02*
X149860000Y-99596262D01*
X156718000Y-119380000D02*
X158750000Y-119380000D01*
X158750000Y-119380000D02*
X160020000Y-120650000D01*
X156210000Y-118872000D02*
X156718000Y-119380000D01*
X156210000Y-116484400D02*
X156210000Y-118872000D01*
X155397200Y-115671600D02*
X156210000Y-116484400D01*
X155397200Y-113030000D02*
X155397200Y-115671600D01*
X153873200Y-109575600D02*
X154228800Y-109220000D01*
X154228800Y-109220000D02*
X155575000Y-109220000D01*
X153873200Y-110693200D02*
X153873200Y-109575600D01*
X155397200Y-112217200D02*
X153873200Y-110693200D01*
X155397200Y-113030000D02*
X155397200Y-112217200D01*
X160020000Y-120650000D02*
X159385000Y-120650000D01*
X145796000Y-115189000D02*
X145917733Y-115189000D01*
X145917733Y-115189000D02*
X146049998Y-115056735D01*
X146049998Y-114173000D02*
X146049998Y-115056735D01*
X146049998Y-115056735D02*
X146049998Y-119379998D01*
X146049998Y-119379998D02*
X147320000Y-120650000D01*
X146049998Y-113748736D02*
X146049998Y-114173000D01*
X146049998Y-112140998D02*
X146049998Y-113748736D01*
D26*
X157099000Y-104114600D02*
X157099000Y-104140000D01*
X157099000Y-104140000D02*
X160528000Y-107569000D01*
X157099000Y-103505000D02*
X157099000Y-104114600D01*
D23*
X160528000Y-107569000D02*
X160528000Y-107823000D01*
D26*
X156591000Y-101727000D02*
X157226000Y-101727000D01*
X157226000Y-101727000D02*
X160528000Y-105029000D01*
D23*
X160528000Y-105029000D02*
X160782000Y-105029000D01*
X152781000Y-103759000D02*
X154813000Y-101727000D01*
X154813000Y-101727000D02*
X156591000Y-101727000D01*
D26*
X159392536Y-109016800D02*
X159435800Y-109016800D01*
X159435800Y-109016800D02*
X160528000Y-110109000D01*
X157226000Y-106426000D02*
X157226000Y-106850264D01*
X157226000Y-106850264D02*
X159392536Y-109016800D01*
D23*
X160274000Y-110109000D02*
X160528000Y-110109000D01*
X153543000Y-107061000D02*
X152146000Y-107061000D01*
X152146000Y-107061000D02*
X151003000Y-108204000D01*
X142238589Y-120650000D02*
X142240000Y-120650000D01*
X140563599Y-118975010D02*
X142238589Y-120650000D01*
X140563599Y-118973599D02*
X140563599Y-118975010D01*
X139700000Y-118110000D02*
X140563599Y-118973599D01*
D24*
X160528000Y-98704400D02*
X161239200Y-97993200D01*
X160528000Y-98958400D02*
X160528000Y-98704400D01*
D27*
X158394400Y-98958400D02*
X158140400Y-98704400D01*
X158140400Y-98704400D02*
X153009600Y-98704400D01*
X160528000Y-98958400D02*
X158394400Y-98958400D01*
D26*
X158038800Y-112826800D02*
X157124400Y-112826800D01*
X158038800Y-112826800D02*
X160528000Y-115316000D01*
D28*
G36*
X139827000Y-120523000D02*
X139847000Y-120523000D01*
X139847000Y-120777000D01*
X139827000Y-120777000D01*
X139827000Y-120797000D01*
X139573000Y-120797000D01*
X139573000Y-120777000D01*
X139553000Y-120777000D01*
X139553000Y-120523000D01*
X139573000Y-120523000D01*
X139573000Y-120503000D01*
X139827000Y-120503000D01*
X139827000Y-120523000D01*
X139827000Y-120523000D01*
G37*
X139827000Y-120523000D02*
X139847000Y-120523000D01*
X139847000Y-120777000D01*
X139827000Y-120777000D01*
X139827000Y-120797000D01*
X139573000Y-120797000D01*
X139573000Y-120777000D01*
X139553000Y-120777000D01*
X139553000Y-120523000D01*
X139573000Y-120523000D01*
X139573000Y-120503000D01*
X139827000Y-120503000D01*
X139827000Y-120523000D01*
G36*
X148971510Y-119316821D02*
X149094228Y-119374336D01*
X148770971Y-119590330D01*
X148590000Y-119861172D01*
X148409029Y-119590330D01*
X148085772Y-119374336D01*
X148208490Y-119316821D01*
X148590000Y-118898848D01*
X148971510Y-119316821D01*
X148971510Y-119316821D01*
G37*
X148971510Y-119316821D02*
X149094228Y-119374336D01*
X148770971Y-119590330D01*
X148590000Y-119861172D01*
X148409029Y-119590330D01*
X148085772Y-119374336D01*
X148208490Y-119316821D01*
X148590000Y-118898848D01*
X148971510Y-119316821D01*
G36*
X156331283Y-113355743D02*
X156594073Y-113618992D01*
X156937601Y-113761638D01*
X157309567Y-113761962D01*
X157612483Y-113636800D01*
X157703288Y-113636800D01*
X159143208Y-115076721D01*
X159142760Y-115590285D01*
X159353169Y-116099515D01*
X159742436Y-116489461D01*
X160251298Y-116700759D01*
X160290911Y-116700794D01*
X160147000Y-116775531D01*
X160147000Y-117983000D01*
X160167000Y-117983000D01*
X160167000Y-118237000D01*
X160147000Y-118237000D01*
X160147000Y-118257000D01*
X159893000Y-118257000D01*
X159893000Y-118237000D01*
X157607000Y-118237000D01*
X157607000Y-118257000D01*
X157353000Y-118257000D01*
X157353000Y-118237000D01*
X157333000Y-118237000D01*
X157333000Y-117983000D01*
X157353000Y-117983000D01*
X157353000Y-116775531D01*
X157607000Y-116775531D01*
X157607000Y-117983000D01*
X159893000Y-117983000D01*
X159893000Y-116775531D01*
X159660973Y-116655032D01*
X159131510Y-116903179D01*
X158750000Y-117321152D01*
X158368490Y-116903179D01*
X157839027Y-116655032D01*
X157607000Y-116775531D01*
X157353000Y-116775531D01*
X157120973Y-116655032D01*
X156970000Y-116725790D01*
X156970000Y-116484400D01*
X156912148Y-116193561D01*
X156747401Y-115946999D01*
X156157200Y-115356798D01*
X156157200Y-113592463D01*
X156189392Y-113560327D01*
X156302883Y-113287011D01*
X156331283Y-113355743D01*
X156331283Y-113355743D01*
G37*
X156331283Y-113355743D02*
X156594073Y-113618992D01*
X156937601Y-113761638D01*
X157309567Y-113761962D01*
X157612483Y-113636800D01*
X157703288Y-113636800D01*
X159143208Y-115076721D01*
X159142760Y-115590285D01*
X159353169Y-116099515D01*
X159742436Y-116489461D01*
X160251298Y-116700759D01*
X160290911Y-116700794D01*
X160147000Y-116775531D01*
X160147000Y-117983000D01*
X160167000Y-117983000D01*
X160167000Y-118237000D01*
X160147000Y-118237000D01*
X160147000Y-118257000D01*
X159893000Y-118257000D01*
X159893000Y-118237000D01*
X157607000Y-118237000D01*
X157607000Y-118257000D01*
X157353000Y-118257000D01*
X157353000Y-118237000D01*
X157333000Y-118237000D01*
X157333000Y-117983000D01*
X157353000Y-117983000D01*
X157353000Y-116775531D01*
X157607000Y-116775531D01*
X157607000Y-117983000D01*
X159893000Y-117983000D01*
X159893000Y-116775531D01*
X159660973Y-116655032D01*
X159131510Y-116903179D01*
X158750000Y-117321152D01*
X158368490Y-116903179D01*
X157839027Y-116655032D01*
X157607000Y-116775531D01*
X157353000Y-116775531D01*
X157120973Y-116655032D01*
X156970000Y-116725790D01*
X156970000Y-116484400D01*
X156912148Y-116193561D01*
X156747401Y-115946999D01*
X156157200Y-115356798D01*
X156157200Y-113592463D01*
X156189392Y-113560327D01*
X156302883Y-113287011D01*
X156331283Y-113355743D01*
G36*
X152527000Y-112268000D02*
X153543000Y-112268000D01*
X153543000Y-112248000D01*
X153797000Y-112248000D01*
X153797000Y-112268000D01*
X153817000Y-112268000D01*
X153817000Y-112522000D01*
X153797000Y-112522000D01*
X153797000Y-113887250D01*
X153955750Y-114046000D01*
X154177310Y-114046000D01*
X154410699Y-113949327D01*
X154589327Y-113770698D01*
X154637200Y-113655122D01*
X154637200Y-115671600D01*
X154695052Y-115962439D01*
X154859799Y-116209001D01*
X155311831Y-116661033D01*
X155299027Y-116655032D01*
X155067000Y-116775531D01*
X155067000Y-117983000D01*
X155087000Y-117983000D01*
X155087000Y-118237000D01*
X155067000Y-118237000D01*
X155067000Y-118257000D01*
X154813000Y-118257000D01*
X154813000Y-118237000D01*
X152527000Y-118237000D01*
X152527000Y-118257000D01*
X152273000Y-118257000D01*
X152273000Y-118237000D01*
X149987000Y-118237000D01*
X149987000Y-118257000D01*
X149733000Y-118257000D01*
X149733000Y-118237000D01*
X147447000Y-118237000D01*
X147447000Y-118257000D01*
X147193000Y-118257000D01*
X147193000Y-118237000D01*
X147173000Y-118237000D01*
X147173000Y-117983000D01*
X147193000Y-117983000D01*
X147193000Y-116775531D01*
X147447000Y-116775531D01*
X147447000Y-117983000D01*
X149733000Y-117983000D01*
X149733000Y-116775531D01*
X149987000Y-116775531D01*
X149987000Y-117983000D01*
X152273000Y-117983000D01*
X152273000Y-116775531D01*
X152527000Y-116775531D01*
X152527000Y-117983000D01*
X154813000Y-117983000D01*
X154813000Y-116775531D01*
X154580973Y-116655032D01*
X154051510Y-116903179D01*
X153670000Y-117321152D01*
X153288490Y-116903179D01*
X152759027Y-116655032D01*
X152527000Y-116775531D01*
X152273000Y-116775531D01*
X152040973Y-116655032D01*
X151511510Y-116903179D01*
X151130000Y-117321152D01*
X150748490Y-116903179D01*
X150219027Y-116655032D01*
X149987000Y-116775531D01*
X149733000Y-116775531D01*
X149500973Y-116655032D01*
X148971510Y-116903179D01*
X148590000Y-117321152D01*
X148208490Y-116903179D01*
X147679027Y-116655032D01*
X147447000Y-116775531D01*
X147193000Y-116775531D01*
X146960973Y-116655032D01*
X146809998Y-116725790D01*
X146809998Y-114032316D01*
X146939000Y-114058440D01*
X147701000Y-114058440D01*
X147936317Y-114014162D01*
X147952099Y-114004007D01*
X147957110Y-114007431D01*
X148209000Y-114058440D01*
X148971000Y-114058440D01*
X149206317Y-114014162D01*
X149222099Y-114004007D01*
X149227110Y-114007431D01*
X149479000Y-114058440D01*
X150241000Y-114058440D01*
X150476317Y-114014162D01*
X150492099Y-114004007D01*
X150497110Y-114007431D01*
X150749000Y-114058440D01*
X151511000Y-114058440D01*
X151746317Y-114014162D01*
X151773538Y-113996646D01*
X151892690Y-114046000D01*
X152114250Y-114046000D01*
X152273000Y-113887250D01*
X152273000Y-112522000D01*
X152527000Y-112522000D01*
X152527000Y-113887250D01*
X152685750Y-114046000D01*
X152907310Y-114046000D01*
X153035000Y-113993109D01*
X153162690Y-114046000D01*
X153384250Y-114046000D01*
X153543000Y-113887250D01*
X153543000Y-112522000D01*
X152527000Y-112522000D01*
X152273000Y-112522000D01*
X152253000Y-112522000D01*
X152253000Y-112268000D01*
X152273000Y-112268000D01*
X152273000Y-112248000D01*
X152527000Y-112248000D01*
X152527000Y-112268000D01*
X152527000Y-112268000D01*
G37*
X152527000Y-112268000D02*
X153543000Y-112268000D01*
X153543000Y-112248000D01*
X153797000Y-112248000D01*
X153797000Y-112268000D01*
X153817000Y-112268000D01*
X153817000Y-112522000D01*
X153797000Y-112522000D01*
X153797000Y-113887250D01*
X153955750Y-114046000D01*
X154177310Y-114046000D01*
X154410699Y-113949327D01*
X154589327Y-113770698D01*
X154637200Y-113655122D01*
X154637200Y-115671600D01*
X154695052Y-115962439D01*
X154859799Y-116209001D01*
X155311831Y-116661033D01*
X155299027Y-116655032D01*
X155067000Y-116775531D01*
X155067000Y-117983000D01*
X155087000Y-117983000D01*
X155087000Y-118237000D01*
X155067000Y-118237000D01*
X155067000Y-118257000D01*
X154813000Y-118257000D01*
X154813000Y-118237000D01*
X152527000Y-118237000D01*
X152527000Y-118257000D01*
X152273000Y-118257000D01*
X152273000Y-118237000D01*
X149987000Y-118237000D01*
X149987000Y-118257000D01*
X149733000Y-118257000D01*
X149733000Y-118237000D01*
X147447000Y-118237000D01*
X147447000Y-118257000D01*
X147193000Y-118257000D01*
X147193000Y-118237000D01*
X147173000Y-118237000D01*
X147173000Y-117983000D01*
X147193000Y-117983000D01*
X147193000Y-116775531D01*
X147447000Y-116775531D01*
X147447000Y-117983000D01*
X149733000Y-117983000D01*
X149733000Y-116775531D01*
X149987000Y-116775531D01*
X149987000Y-117983000D01*
X152273000Y-117983000D01*
X152273000Y-116775531D01*
X152527000Y-116775531D01*
X152527000Y-117983000D01*
X154813000Y-117983000D01*
X154813000Y-116775531D01*
X154580973Y-116655032D01*
X154051510Y-116903179D01*
X153670000Y-117321152D01*
X153288490Y-116903179D01*
X152759027Y-116655032D01*
X152527000Y-116775531D01*
X152273000Y-116775531D01*
X152040973Y-116655032D01*
X151511510Y-116903179D01*
X151130000Y-117321152D01*
X150748490Y-116903179D01*
X150219027Y-116655032D01*
X149987000Y-116775531D01*
X149733000Y-116775531D01*
X149500973Y-116655032D01*
X148971510Y-116903179D01*
X148590000Y-117321152D01*
X148208490Y-116903179D01*
X147679027Y-116655032D01*
X147447000Y-116775531D01*
X147193000Y-116775531D01*
X146960973Y-116655032D01*
X146809998Y-116725790D01*
X146809998Y-114032316D01*
X146939000Y-114058440D01*
X147701000Y-114058440D01*
X147936317Y-114014162D01*
X147952099Y-114004007D01*
X147957110Y-114007431D01*
X148209000Y-114058440D01*
X148971000Y-114058440D01*
X149206317Y-114014162D01*
X149222099Y-114004007D01*
X149227110Y-114007431D01*
X149479000Y-114058440D01*
X150241000Y-114058440D01*
X150476317Y-114014162D01*
X150492099Y-114004007D01*
X150497110Y-114007431D01*
X150749000Y-114058440D01*
X151511000Y-114058440D01*
X151746317Y-114014162D01*
X151773538Y-113996646D01*
X151892690Y-114046000D01*
X152114250Y-114046000D01*
X152273000Y-113887250D01*
X152273000Y-112522000D01*
X152527000Y-112522000D01*
X152527000Y-113887250D01*
X152685750Y-114046000D01*
X152907310Y-114046000D01*
X153035000Y-113993109D01*
X153162690Y-114046000D01*
X153384250Y-114046000D01*
X153543000Y-113887250D01*
X153543000Y-112522000D01*
X152527000Y-112522000D01*
X152273000Y-112522000D01*
X152253000Y-112522000D01*
X152253000Y-112268000D01*
X152273000Y-112268000D01*
X152273000Y-112248000D01*
X152527000Y-112248000D01*
X152527000Y-112268000D01*
G36*
X150990560Y-96266000D02*
X151034838Y-96501317D01*
X151173910Y-96717441D01*
X151386110Y-96862431D01*
X151638000Y-96913440D01*
X152635282Y-96913440D01*
X150712460Y-98836262D01*
X149860000Y-98836262D01*
X149569161Y-98894114D01*
X149322599Y-99058861D01*
X149157852Y-99305423D01*
X149151667Y-99336516D01*
X149097310Y-99314000D01*
X148875750Y-99314000D01*
X148717000Y-99472750D01*
X148717000Y-100838000D01*
X148737000Y-100838000D01*
X148737000Y-101092000D01*
X148717000Y-101092000D01*
X148717000Y-102457250D01*
X148875750Y-102616000D01*
X149097310Y-102616000D01*
X149213264Y-102567970D01*
X149227110Y-102577431D01*
X149479000Y-102628440D01*
X149815371Y-102628440D01*
X149687162Y-102937201D01*
X149686838Y-103309167D01*
X149828883Y-103652943D01*
X150091673Y-103916192D01*
X150435201Y-104058838D01*
X150807167Y-104059162D01*
X151150943Y-103917117D01*
X151414192Y-103654327D01*
X151556838Y-103310799D01*
X151556879Y-103263923D01*
X151667401Y-103153401D01*
X151695358Y-103111560D01*
X151832148Y-102906839D01*
X151890000Y-102616000D01*
X151890000Y-102614886D01*
X151892690Y-102616000D01*
X152114250Y-102616000D01*
X152273000Y-102457250D01*
X152273000Y-101092000D01*
X152253000Y-101092000D01*
X152253000Y-100838000D01*
X152273000Y-100838000D01*
X152273000Y-100818000D01*
X152527000Y-100818000D01*
X152527000Y-100838000D01*
X153543000Y-100838000D01*
X153543000Y-100818000D01*
X153797000Y-100818000D01*
X153797000Y-100838000D01*
X154527250Y-100838000D01*
X154686000Y-100679250D01*
X154686000Y-99822691D01*
X154589327Y-99589302D01*
X154539425Y-99539400D01*
X157794532Y-99539400D01*
X157803966Y-99548834D01*
X158074859Y-99729839D01*
X158394400Y-99793400D01*
X159404564Y-99793400D01*
X159742436Y-100131861D01*
X160251298Y-100343159D01*
X160802285Y-100343640D01*
X161215000Y-100173110D01*
X161215000Y-103760473D01*
X160814691Y-103594250D01*
X160243813Y-103593752D01*
X160239887Y-103595374D01*
X157798756Y-101154244D01*
X157748997Y-101120996D01*
X157535974Y-100978658D01*
X157226000Y-100917000D01*
X156591000Y-100917000D01*
X156339634Y-100967000D01*
X154813000Y-100967000D01*
X154522161Y-101024852D01*
X154421667Y-101092000D01*
X153797000Y-101092000D01*
X153797000Y-101112000D01*
X153543000Y-101112000D01*
X153543000Y-101092000D01*
X152527000Y-101092000D01*
X152527000Y-102457250D01*
X152685750Y-102616000D01*
X152849198Y-102616000D01*
X152641320Y-102823878D01*
X152595833Y-102823838D01*
X152252057Y-102965883D01*
X151988808Y-103228673D01*
X151846162Y-103572201D01*
X151845838Y-103944167D01*
X151987883Y-104287943D01*
X152250673Y-104551192D01*
X152488628Y-104650000D01*
X150495000Y-104650000D01*
X150204161Y-104707852D01*
X149957599Y-104872599D01*
X149033783Y-105796415D01*
X148897496Y-105659889D01*
X148553968Y-105517243D01*
X148502000Y-105517198D01*
X145600802Y-102616000D01*
X145764250Y-102616000D01*
X145923000Y-102457250D01*
X145923000Y-101092000D01*
X146177000Y-101092000D01*
X146177000Y-102457250D01*
X146335750Y-102616000D01*
X146557310Y-102616000D01*
X146685000Y-102563109D01*
X146812690Y-102616000D01*
X147034250Y-102616000D01*
X147193000Y-102457250D01*
X147193000Y-101092000D01*
X147447000Y-101092000D01*
X147447000Y-102457250D01*
X147605750Y-102616000D01*
X147827310Y-102616000D01*
X147955000Y-102563109D01*
X148082690Y-102616000D01*
X148304250Y-102616000D01*
X148463000Y-102457250D01*
X148463000Y-101092000D01*
X147447000Y-101092000D01*
X147193000Y-101092000D01*
X146177000Y-101092000D01*
X145923000Y-101092000D01*
X144907000Y-101092000D01*
X144907000Y-101112000D01*
X144653000Y-101112000D01*
X144653000Y-101092000D01*
X144633000Y-101092000D01*
X144633000Y-100838000D01*
X144653000Y-100838000D01*
X144653000Y-99472750D01*
X144907000Y-99472750D01*
X144907000Y-100838000D01*
X145923000Y-100838000D01*
X145923000Y-100818000D01*
X146177000Y-100818000D01*
X146177000Y-100838000D01*
X147193000Y-100838000D01*
X147193000Y-99472750D01*
X147447000Y-99472750D01*
X147447000Y-100838000D01*
X148463000Y-100838000D01*
X148463000Y-99472750D01*
X148304250Y-99314000D01*
X148082690Y-99314000D01*
X147955000Y-99366891D01*
X147827310Y-99314000D01*
X147605750Y-99314000D01*
X147447000Y-99472750D01*
X147193000Y-99472750D01*
X147034250Y-99314000D01*
X146812690Y-99314000D01*
X146685000Y-99366891D01*
X146607081Y-99334616D01*
X146961077Y-99188348D01*
X147267870Y-98882089D01*
X147434111Y-98481738D01*
X147434489Y-98048244D01*
X147268948Y-97647603D01*
X146962689Y-97340810D01*
X146562338Y-97174569D01*
X146128844Y-97174191D01*
X145728203Y-97339732D01*
X145421410Y-97645991D01*
X145255169Y-98046342D01*
X145254791Y-98479836D01*
X145420332Y-98880477D01*
X145726591Y-99187270D01*
X146031789Y-99314000D01*
X145922998Y-99314000D01*
X145922998Y-99472748D01*
X145764250Y-99314000D01*
X145542690Y-99314000D01*
X145415000Y-99366891D01*
X145287310Y-99314000D01*
X145065750Y-99314000D01*
X144907000Y-99472750D01*
X144653000Y-99472750D01*
X144494250Y-99314000D01*
X144272690Y-99314000D01*
X144156736Y-99362030D01*
X144142890Y-99352569D01*
X143891000Y-99301560D01*
X143129000Y-99301560D01*
X142893683Y-99345838D01*
X142677559Y-99484910D01*
X142532569Y-99697110D01*
X142481560Y-99949000D01*
X142481560Y-101841560D01*
X140589000Y-101841560D01*
X140353683Y-101885838D01*
X140137559Y-102024910D01*
X139992569Y-102237110D01*
X139941560Y-102489000D01*
X139941560Y-103251000D01*
X139985838Y-103486317D01*
X139995993Y-103502099D01*
X139992569Y-103507110D01*
X139941560Y-103759000D01*
X139941560Y-104521000D01*
X139985838Y-104756317D01*
X140003355Y-104783539D01*
X139954000Y-104902691D01*
X139954000Y-105124250D01*
X140112750Y-105283000D01*
X141478000Y-105283000D01*
X141478000Y-105263000D01*
X141732000Y-105263000D01*
X141732000Y-105283000D01*
X141752000Y-105283000D01*
X141752000Y-105537000D01*
X141732000Y-105537000D01*
X141732000Y-105557000D01*
X141478000Y-105557000D01*
X141478000Y-105537000D01*
X140112750Y-105537000D01*
X139954000Y-105695750D01*
X139954000Y-105917309D01*
X140002030Y-106033263D01*
X139992569Y-106047110D01*
X139941560Y-106299000D01*
X139941560Y-107061000D01*
X139985838Y-107296317D01*
X139995993Y-107312099D01*
X139992569Y-107317110D01*
X139941560Y-107569000D01*
X139941560Y-108331000D01*
X139985838Y-108566317D01*
X139995993Y-108582099D01*
X139992569Y-108587110D01*
X139941560Y-108839000D01*
X139941560Y-109601000D01*
X139985838Y-109836317D01*
X139995993Y-109852099D01*
X139992569Y-109857110D01*
X139941560Y-110109000D01*
X139941560Y-110871000D01*
X139985838Y-111106317D01*
X140124910Y-111322441D01*
X140337110Y-111467431D01*
X140589000Y-111518440D01*
X142481560Y-111518440D01*
X142481560Y-113411000D01*
X142525838Y-113646317D01*
X142664910Y-113862441D01*
X142877110Y-114007431D01*
X143129000Y-114058440D01*
X143891000Y-114058440D01*
X144126317Y-114014162D01*
X144142099Y-114004007D01*
X144147110Y-114007431D01*
X144399000Y-114058440D01*
X145161000Y-114058440D01*
X145289998Y-114034167D01*
X145289998Y-114386404D01*
X145267057Y-114395883D01*
X145003808Y-114658673D01*
X144861162Y-115002201D01*
X144860838Y-115374167D01*
X145002883Y-115717943D01*
X145265673Y-115981192D01*
X145289998Y-115991293D01*
X145289998Y-116707005D01*
X144809359Y-116611400D01*
X144750641Y-116611400D01*
X144177152Y-116725474D01*
X143690971Y-117050330D01*
X143510000Y-117321172D01*
X143329029Y-117050330D01*
X142842848Y-116725474D01*
X142269359Y-116611400D01*
X142210641Y-116611400D01*
X141637152Y-116725474D01*
X141150971Y-117050330D01*
X140970000Y-117321172D01*
X140789029Y-117050330D01*
X140302848Y-116725474D01*
X139729359Y-116611400D01*
X139670641Y-116611400D01*
X139097152Y-116725474D01*
X138610971Y-117050330D01*
X138430000Y-117321172D01*
X138249029Y-117050330D01*
X137762848Y-116725474D01*
X137189359Y-116611400D01*
X137130641Y-116611400D01*
X136557152Y-116725474D01*
X136070971Y-117050330D01*
X135965000Y-117208927D01*
X135965000Y-114016402D01*
X135985883Y-114066943D01*
X136248673Y-114330192D01*
X136592201Y-114472838D01*
X136964167Y-114473162D01*
X137085569Y-114423000D01*
X137286995Y-114423000D01*
X137287000Y-114423001D01*
X137569484Y-114366810D01*
X137625675Y-114355633D01*
X137912790Y-114163790D01*
X139309787Y-112766792D01*
X139309790Y-112766790D01*
X139501633Y-112479675D01*
X139569000Y-112141000D01*
X139569000Y-98537580D01*
X139626743Y-98479836D01*
X140855511Y-98479836D01*
X141021052Y-98880477D01*
X141327311Y-99187270D01*
X141727662Y-99353511D01*
X142161156Y-99353889D01*
X142561797Y-99188348D01*
X142868590Y-98882089D01*
X143034831Y-98481738D01*
X143035209Y-98048244D01*
X142869668Y-97647603D01*
X142563409Y-97340810D01*
X142163058Y-97174569D01*
X141729564Y-97174191D01*
X141328923Y-97339732D01*
X141022130Y-97645991D01*
X140855889Y-98046342D01*
X140855511Y-98479836D01*
X139626743Y-98479836D01*
X141971579Y-96135000D01*
X150990560Y-96135000D01*
X150990560Y-96266000D01*
X150990560Y-96266000D01*
G37*
X150990560Y-96266000D02*
X151034838Y-96501317D01*
X151173910Y-96717441D01*
X151386110Y-96862431D01*
X151638000Y-96913440D01*
X152635282Y-96913440D01*
X150712460Y-98836262D01*
X149860000Y-98836262D01*
X149569161Y-98894114D01*
X149322599Y-99058861D01*
X149157852Y-99305423D01*
X149151667Y-99336516D01*
X149097310Y-99314000D01*
X148875750Y-99314000D01*
X148717000Y-99472750D01*
X148717000Y-100838000D01*
X148737000Y-100838000D01*
X148737000Y-101092000D01*
X148717000Y-101092000D01*
X148717000Y-102457250D01*
X148875750Y-102616000D01*
X149097310Y-102616000D01*
X149213264Y-102567970D01*
X149227110Y-102577431D01*
X149479000Y-102628440D01*
X149815371Y-102628440D01*
X149687162Y-102937201D01*
X149686838Y-103309167D01*
X149828883Y-103652943D01*
X150091673Y-103916192D01*
X150435201Y-104058838D01*
X150807167Y-104059162D01*
X151150943Y-103917117D01*
X151414192Y-103654327D01*
X151556838Y-103310799D01*
X151556879Y-103263923D01*
X151667401Y-103153401D01*
X151695358Y-103111560D01*
X151832148Y-102906839D01*
X151890000Y-102616000D01*
X151890000Y-102614886D01*
X151892690Y-102616000D01*
X152114250Y-102616000D01*
X152273000Y-102457250D01*
X152273000Y-101092000D01*
X152253000Y-101092000D01*
X152253000Y-100838000D01*
X152273000Y-100838000D01*
X152273000Y-100818000D01*
X152527000Y-100818000D01*
X152527000Y-100838000D01*
X153543000Y-100838000D01*
X153543000Y-100818000D01*
X153797000Y-100818000D01*
X153797000Y-100838000D01*
X154527250Y-100838000D01*
X154686000Y-100679250D01*
X154686000Y-99822691D01*
X154589327Y-99589302D01*
X154539425Y-99539400D01*
X157794532Y-99539400D01*
X157803966Y-99548834D01*
X158074859Y-99729839D01*
X158394400Y-99793400D01*
X159404564Y-99793400D01*
X159742436Y-100131861D01*
X160251298Y-100343159D01*
X160802285Y-100343640D01*
X161215000Y-100173110D01*
X161215000Y-103760473D01*
X160814691Y-103594250D01*
X160243813Y-103593752D01*
X160239887Y-103595374D01*
X157798756Y-101154244D01*
X157748997Y-101120996D01*
X157535974Y-100978658D01*
X157226000Y-100917000D01*
X156591000Y-100917000D01*
X156339634Y-100967000D01*
X154813000Y-100967000D01*
X154522161Y-101024852D01*
X154421667Y-101092000D01*
X153797000Y-101092000D01*
X153797000Y-101112000D01*
X153543000Y-101112000D01*
X153543000Y-101092000D01*
X152527000Y-101092000D01*
X152527000Y-102457250D01*
X152685750Y-102616000D01*
X152849198Y-102616000D01*
X152641320Y-102823878D01*
X152595833Y-102823838D01*
X152252057Y-102965883D01*
X151988808Y-103228673D01*
X151846162Y-103572201D01*
X151845838Y-103944167D01*
X151987883Y-104287943D01*
X152250673Y-104551192D01*
X152488628Y-104650000D01*
X150495000Y-104650000D01*
X150204161Y-104707852D01*
X149957599Y-104872599D01*
X149033783Y-105796415D01*
X148897496Y-105659889D01*
X148553968Y-105517243D01*
X148502000Y-105517198D01*
X145600802Y-102616000D01*
X145764250Y-102616000D01*
X145923000Y-102457250D01*
X145923000Y-101092000D01*
X146177000Y-101092000D01*
X146177000Y-102457250D01*
X146335750Y-102616000D01*
X146557310Y-102616000D01*
X146685000Y-102563109D01*
X146812690Y-102616000D01*
X147034250Y-102616000D01*
X147193000Y-102457250D01*
X147193000Y-101092000D01*
X147447000Y-101092000D01*
X147447000Y-102457250D01*
X147605750Y-102616000D01*
X147827310Y-102616000D01*
X147955000Y-102563109D01*
X148082690Y-102616000D01*
X148304250Y-102616000D01*
X148463000Y-102457250D01*
X148463000Y-101092000D01*
X147447000Y-101092000D01*
X147193000Y-101092000D01*
X146177000Y-101092000D01*
X145923000Y-101092000D01*
X144907000Y-101092000D01*
X144907000Y-101112000D01*
X144653000Y-101112000D01*
X144653000Y-101092000D01*
X144633000Y-101092000D01*
X144633000Y-100838000D01*
X144653000Y-100838000D01*
X144653000Y-99472750D01*
X144907000Y-99472750D01*
X144907000Y-100838000D01*
X145923000Y-100838000D01*
X145923000Y-100818000D01*
X146177000Y-100818000D01*
X146177000Y-100838000D01*
X147193000Y-100838000D01*
X147193000Y-99472750D01*
X147447000Y-99472750D01*
X147447000Y-100838000D01*
X148463000Y-100838000D01*
X148463000Y-99472750D01*
X148304250Y-99314000D01*
X148082690Y-99314000D01*
X147955000Y-99366891D01*
X147827310Y-99314000D01*
X147605750Y-99314000D01*
X147447000Y-99472750D01*
X147193000Y-99472750D01*
X147034250Y-99314000D01*
X146812690Y-99314000D01*
X146685000Y-99366891D01*
X146607081Y-99334616D01*
X146961077Y-99188348D01*
X147267870Y-98882089D01*
X147434111Y-98481738D01*
X147434489Y-98048244D01*
X147268948Y-97647603D01*
X146962689Y-97340810D01*
X146562338Y-97174569D01*
X146128844Y-97174191D01*
X145728203Y-97339732D01*
X145421410Y-97645991D01*
X145255169Y-98046342D01*
X145254791Y-98479836D01*
X145420332Y-98880477D01*
X145726591Y-99187270D01*
X146031789Y-99314000D01*
X145922998Y-99314000D01*
X145922998Y-99472748D01*
X145764250Y-99314000D01*
X145542690Y-99314000D01*
X145415000Y-99366891D01*
X145287310Y-99314000D01*
X145065750Y-99314000D01*
X144907000Y-99472750D01*
X144653000Y-99472750D01*
X144494250Y-99314000D01*
X144272690Y-99314000D01*
X144156736Y-99362030D01*
X144142890Y-99352569D01*
X143891000Y-99301560D01*
X143129000Y-99301560D01*
X142893683Y-99345838D01*
X142677559Y-99484910D01*
X142532569Y-99697110D01*
X142481560Y-99949000D01*
X142481560Y-101841560D01*
X140589000Y-101841560D01*
X140353683Y-101885838D01*
X140137559Y-102024910D01*
X139992569Y-102237110D01*
X139941560Y-102489000D01*
X139941560Y-103251000D01*
X139985838Y-103486317D01*
X139995993Y-103502099D01*
X139992569Y-103507110D01*
X139941560Y-103759000D01*
X139941560Y-104521000D01*
X139985838Y-104756317D01*
X140003355Y-104783539D01*
X139954000Y-104902691D01*
X139954000Y-105124250D01*
X140112750Y-105283000D01*
X141478000Y-105283000D01*
X141478000Y-105263000D01*
X141732000Y-105263000D01*
X141732000Y-105283000D01*
X141752000Y-105283000D01*
X141752000Y-105537000D01*
X141732000Y-105537000D01*
X141732000Y-105557000D01*
X141478000Y-105557000D01*
X141478000Y-105537000D01*
X140112750Y-105537000D01*
X139954000Y-105695750D01*
X139954000Y-105917309D01*
X140002030Y-106033263D01*
X139992569Y-106047110D01*
X139941560Y-106299000D01*
X139941560Y-107061000D01*
X139985838Y-107296317D01*
X139995993Y-107312099D01*
X139992569Y-107317110D01*
X139941560Y-107569000D01*
X139941560Y-108331000D01*
X139985838Y-108566317D01*
X139995993Y-108582099D01*
X139992569Y-108587110D01*
X139941560Y-108839000D01*
X139941560Y-109601000D01*
X139985838Y-109836317D01*
X139995993Y-109852099D01*
X139992569Y-109857110D01*
X139941560Y-110109000D01*
X139941560Y-110871000D01*
X139985838Y-111106317D01*
X140124910Y-111322441D01*
X140337110Y-111467431D01*
X140589000Y-111518440D01*
X142481560Y-111518440D01*
X142481560Y-113411000D01*
X142525838Y-113646317D01*
X142664910Y-113862441D01*
X142877110Y-114007431D01*
X143129000Y-114058440D01*
X143891000Y-114058440D01*
X144126317Y-114014162D01*
X144142099Y-114004007D01*
X144147110Y-114007431D01*
X144399000Y-114058440D01*
X145161000Y-114058440D01*
X145289998Y-114034167D01*
X145289998Y-114386404D01*
X145267057Y-114395883D01*
X145003808Y-114658673D01*
X144861162Y-115002201D01*
X144860838Y-115374167D01*
X145002883Y-115717943D01*
X145265673Y-115981192D01*
X145289998Y-115991293D01*
X145289998Y-116707005D01*
X144809359Y-116611400D01*
X144750641Y-116611400D01*
X144177152Y-116725474D01*
X143690971Y-117050330D01*
X143510000Y-117321172D01*
X143329029Y-117050330D01*
X142842848Y-116725474D01*
X142269359Y-116611400D01*
X142210641Y-116611400D01*
X141637152Y-116725474D01*
X141150971Y-117050330D01*
X140970000Y-117321172D01*
X140789029Y-117050330D01*
X140302848Y-116725474D01*
X139729359Y-116611400D01*
X139670641Y-116611400D01*
X139097152Y-116725474D01*
X138610971Y-117050330D01*
X138430000Y-117321172D01*
X138249029Y-117050330D01*
X137762848Y-116725474D01*
X137189359Y-116611400D01*
X137130641Y-116611400D01*
X136557152Y-116725474D01*
X136070971Y-117050330D01*
X135965000Y-117208927D01*
X135965000Y-114016402D01*
X135985883Y-114066943D01*
X136248673Y-114330192D01*
X136592201Y-114472838D01*
X136964167Y-114473162D01*
X137085569Y-114423000D01*
X137286995Y-114423000D01*
X137287000Y-114423001D01*
X137569484Y-114366810D01*
X137625675Y-114355633D01*
X137912790Y-114163790D01*
X139309787Y-112766792D01*
X139309790Y-112766790D01*
X139501633Y-112479675D01*
X139569000Y-112141000D01*
X139569000Y-98537580D01*
X139626743Y-98479836D01*
X140855511Y-98479836D01*
X141021052Y-98880477D01*
X141327311Y-99187270D01*
X141727662Y-99353511D01*
X142161156Y-99353889D01*
X142561797Y-99188348D01*
X142868590Y-98882089D01*
X143034831Y-98481738D01*
X143035209Y-98048244D01*
X142869668Y-97647603D01*
X142563409Y-97340810D01*
X142163058Y-97174569D01*
X141729564Y-97174191D01*
X141328923Y-97339732D01*
X141022130Y-97645991D01*
X140855889Y-98046342D01*
X140855511Y-98479836D01*
X139626743Y-98479836D01*
X141971579Y-96135000D01*
X150990560Y-96135000D01*
X150990560Y-96266000D01*
G36*
X158819780Y-109589557D02*
X158950166Y-109676678D01*
X159093997Y-109820509D01*
X159093250Y-109822309D01*
X159092752Y-110393187D01*
X159310757Y-110920800D01*
X159714077Y-111324824D01*
X160241309Y-111543750D01*
X160812187Y-111544248D01*
X161215000Y-111377809D01*
X161215000Y-114101612D01*
X160804702Y-113931241D01*
X160288303Y-113930790D01*
X158611556Y-112254044D01*
X158442371Y-112140998D01*
X158348774Y-112078458D01*
X158038800Y-112016800D01*
X157611841Y-112016800D01*
X157311199Y-111891962D01*
X156939233Y-111891638D01*
X156595457Y-112033683D01*
X156332208Y-112296473D01*
X156218717Y-112569789D01*
X156190317Y-112501057D01*
X156157200Y-112467882D01*
X156157200Y-112217200D01*
X156099348Y-111926361D01*
X156099348Y-111926360D01*
X155934601Y-111679799D01*
X155702002Y-111447200D01*
X155702002Y-111347252D01*
X155860750Y-111506000D01*
X156717310Y-111506000D01*
X156950699Y-111409327D01*
X157129327Y-111230698D01*
X157226000Y-110997309D01*
X157226000Y-110775750D01*
X157067250Y-110617000D01*
X155702000Y-110617000D01*
X155702000Y-110637000D01*
X155448000Y-110637000D01*
X155448000Y-110617000D01*
X155428000Y-110617000D01*
X155428000Y-110363000D01*
X155448000Y-110363000D01*
X155448000Y-110343000D01*
X155702000Y-110343000D01*
X155702000Y-110363000D01*
X157067250Y-110363000D01*
X157226000Y-110204250D01*
X157226000Y-109982691D01*
X157177970Y-109866737D01*
X157187431Y-109852890D01*
X157238440Y-109601000D01*
X157238440Y-108839000D01*
X157194162Y-108603683D01*
X157184007Y-108587901D01*
X157187431Y-108582890D01*
X157238440Y-108331000D01*
X157238440Y-108008216D01*
X158819780Y-109589557D01*
X158819780Y-109589557D01*
G37*
X158819780Y-109589557D02*
X158950166Y-109676678D01*
X159093997Y-109820509D01*
X159093250Y-109822309D01*
X159092752Y-110393187D01*
X159310757Y-110920800D01*
X159714077Y-111324824D01*
X160241309Y-111543750D01*
X160812187Y-111544248D01*
X161215000Y-111377809D01*
X161215000Y-114101612D01*
X160804702Y-113931241D01*
X160288303Y-113930790D01*
X158611556Y-112254044D01*
X158442371Y-112140998D01*
X158348774Y-112078458D01*
X158038800Y-112016800D01*
X157611841Y-112016800D01*
X157311199Y-111891962D01*
X156939233Y-111891638D01*
X156595457Y-112033683D01*
X156332208Y-112296473D01*
X156218717Y-112569789D01*
X156190317Y-112501057D01*
X156157200Y-112467882D01*
X156157200Y-112217200D01*
X156099348Y-111926361D01*
X156099348Y-111926360D01*
X155934601Y-111679799D01*
X155702002Y-111447200D01*
X155702002Y-111347252D01*
X155860750Y-111506000D01*
X156717310Y-111506000D01*
X156950699Y-111409327D01*
X157129327Y-111230698D01*
X157226000Y-110997309D01*
X157226000Y-110775750D01*
X157067250Y-110617000D01*
X155702000Y-110617000D01*
X155702000Y-110637000D01*
X155448000Y-110637000D01*
X155448000Y-110617000D01*
X155428000Y-110617000D01*
X155428000Y-110363000D01*
X155448000Y-110363000D01*
X155448000Y-110343000D01*
X155702000Y-110343000D01*
X155702000Y-110363000D01*
X157067250Y-110363000D01*
X157226000Y-110204250D01*
X157226000Y-109982691D01*
X157177970Y-109866737D01*
X157187431Y-109852890D01*
X157238440Y-109601000D01*
X157238440Y-108839000D01*
X157194162Y-108603683D01*
X157184007Y-108587901D01*
X157187431Y-108582890D01*
X157238440Y-108331000D01*
X157238440Y-108008216D01*
X158819780Y-109589557D01*
G36*
X136906000Y-110998000D02*
X136926000Y-110998000D01*
X136926000Y-111252000D01*
X136906000Y-111252000D01*
X136906000Y-111272000D01*
X136652000Y-111272000D01*
X136652000Y-111252000D01*
X136632000Y-111252000D01*
X136632000Y-110998000D01*
X136652000Y-110998000D01*
X136652000Y-110978000D01*
X136906000Y-110978000D01*
X136906000Y-110998000D01*
X136906000Y-110998000D01*
G37*
X136906000Y-110998000D02*
X136926000Y-110998000D01*
X136926000Y-111252000D01*
X136906000Y-111252000D01*
X136906000Y-111272000D01*
X136652000Y-111272000D01*
X136652000Y-111252000D01*
X136632000Y-111252000D01*
X136632000Y-110998000D01*
X136652000Y-110998000D01*
X136652000Y-110978000D01*
X136906000Y-110978000D01*
X136906000Y-110998000D01*
G36*
X145131599Y-108614401D02*
X145378160Y-108779148D01*
X145669000Y-108837000D01*
X146122537Y-108837000D01*
X146130994Y-108845471D01*
X146130838Y-109024167D01*
X146272883Y-109367943D01*
X146378820Y-109474065D01*
X146146808Y-109705673D01*
X146004162Y-110049201D01*
X146003838Y-110421167D01*
X146132089Y-110731560D01*
X145669000Y-110731560D01*
X145433683Y-110775838D01*
X145417901Y-110785993D01*
X145412890Y-110782569D01*
X145161000Y-110731560D01*
X144399000Y-110731560D01*
X144163683Y-110775838D01*
X144147901Y-110785993D01*
X144142890Y-110782569D01*
X143891000Y-110731560D01*
X143268440Y-110731560D01*
X143268440Y-110109000D01*
X143224162Y-109873683D01*
X143214007Y-109857901D01*
X143217431Y-109852890D01*
X143268440Y-109601000D01*
X143268440Y-108839000D01*
X143224162Y-108603683D01*
X143214007Y-108587901D01*
X143217431Y-108582890D01*
X143268440Y-108331000D01*
X143268440Y-107569000D01*
X143244167Y-107440000D01*
X143957198Y-107440000D01*
X145131599Y-108614401D01*
X145131599Y-108614401D01*
G37*
X145131599Y-108614401D02*
X145378160Y-108779148D01*
X145669000Y-108837000D01*
X146122537Y-108837000D01*
X146130994Y-108845471D01*
X146130838Y-109024167D01*
X146272883Y-109367943D01*
X146378820Y-109474065D01*
X146146808Y-109705673D01*
X146004162Y-110049201D01*
X146003838Y-110421167D01*
X146132089Y-110731560D01*
X145669000Y-110731560D01*
X145433683Y-110775838D01*
X145417901Y-110785993D01*
X145412890Y-110782569D01*
X145161000Y-110731560D01*
X144399000Y-110731560D01*
X144163683Y-110775838D01*
X144147901Y-110785993D01*
X144142890Y-110782569D01*
X143891000Y-110731560D01*
X143268440Y-110731560D01*
X143268440Y-110109000D01*
X143224162Y-109873683D01*
X143214007Y-109857901D01*
X143217431Y-109852890D01*
X143268440Y-109601000D01*
X143268440Y-108839000D01*
X143224162Y-108603683D01*
X143214007Y-108587901D01*
X143217431Y-108582890D01*
X143268440Y-108331000D01*
X143268440Y-107569000D01*
X143244167Y-107440000D01*
X143957198Y-107440000D01*
X145131599Y-108614401D01*
G36*
X155702000Y-102743000D02*
X155722000Y-102743000D01*
X155722000Y-102997000D01*
X155702000Y-102997000D01*
X155702000Y-104013000D01*
X155722000Y-104013000D01*
X155722000Y-104267000D01*
X155702000Y-104267000D01*
X155702000Y-104287000D01*
X155448000Y-104287000D01*
X155448000Y-104267000D01*
X154082750Y-104267000D01*
X153924000Y-104425750D01*
X153924000Y-104647309D01*
X153925115Y-104650000D01*
X153073047Y-104650000D01*
X153309943Y-104552117D01*
X153573192Y-104289327D01*
X153715838Y-103945799D01*
X153715879Y-103898923D01*
X153924000Y-103690802D01*
X153924000Y-103854250D01*
X154082750Y-104013000D01*
X155448000Y-104013000D01*
X155448000Y-102997000D01*
X155428000Y-102997000D01*
X155428000Y-102743000D01*
X155448000Y-102743000D01*
X155448000Y-102723000D01*
X155702000Y-102723000D01*
X155702000Y-102743000D01*
X155702000Y-102743000D01*
G37*
X155702000Y-102743000D02*
X155722000Y-102743000D01*
X155722000Y-102997000D01*
X155702000Y-102997000D01*
X155702000Y-104013000D01*
X155722000Y-104013000D01*
X155722000Y-104267000D01*
X155702000Y-104267000D01*
X155702000Y-104287000D01*
X155448000Y-104287000D01*
X155448000Y-104267000D01*
X154082750Y-104267000D01*
X153924000Y-104425750D01*
X153924000Y-104647309D01*
X153925115Y-104650000D01*
X153073047Y-104650000D01*
X153309943Y-104552117D01*
X153573192Y-104289327D01*
X153715838Y-103945799D01*
X153715879Y-103898923D01*
X153924000Y-103690802D01*
X153924000Y-103854250D01*
X154082750Y-104013000D01*
X155448000Y-104013000D01*
X155448000Y-102997000D01*
X155428000Y-102997000D01*
X155428000Y-102743000D01*
X155448000Y-102743000D01*
X155448000Y-102723000D01*
X155702000Y-102723000D01*
X155702000Y-102743000D01*
M02*
